<svg xmlns="http://www.w3.org/2000/svg" xmlns:xlink="http://www.w3.org/1999/xlink" width="108" height="108" viewBox="0 0 108 108">
  <defs>
    <filter id="Trazado_982547" x="0" y="0" width="108" height="108" filterUnits="userSpaceOnUse">
      <feOffset dy="3" input="SourceAlpha"/>
      <feGaussianBlur stdDeviation="3" result="blur"/>
      <feFlood flood-opacity="0.161"/>
      <feComposite operator="in" in2="blur"/>
      <feComposite in="SourceGraphic"/>
    </filter>
  </defs>
  <g id="Grupo_1148592" data-name="Grupo 1148592" transform="translate(-201 -4219.924)">
    <g id="Grupo_1147089" data-name="Grupo 1147089" transform="translate(-415 236.924)">
      <g transform="matrix(1, 0, 0, 1, 616, 3983)" filter="url(#Trazado_982547)">
        <g id="Trazado_982547-2" data-name="Trazado 982547" transform="translate(9 6)" fill="#eaf4fb">
          <path d="M 45 88.5 C 39.12687683105469 88.5 33.43022537231445 87.35007476806641 28.06830024719238 85.08217620849609 C 22.88852500915527 82.89131164550781 18.23629951477051 79.75458526611328 14.2408504486084 75.75914764404297 C 10.24541282653809 71.76370239257812 7.108687400817871 67.11147308349609 4.917825222015381 61.93170166015625 C 2.649924993515015 56.56977462768555 1.5 50.87312316894531 1.5 45 C 1.5 39.12687683105469 2.649924993515015 33.43022537231445 4.917825222015381 28.06830024719238 C 7.108687400817871 22.88852500915527 10.24541282653809 18.23629951477051 14.2408504486084 14.2408504486084 C 18.23629951477051 10.24541282653809 22.88852500915527 7.108687400817871 28.06830024719238 4.917825222015381 C 33.43022537231445 2.649924993515015 39.12687683105469 1.5 45 1.5 C 50.87312316894531 1.5 56.56977462768555 2.649924993515015 61.93170166015625 4.917825222015381 C 67.11147308349609 7.108687400817871 71.76370239257812 10.24541282653809 75.75914764404297 14.2408504486084 C 79.75458526611328 18.23629951477051 82.89131164550781 22.88852500915527 85.08217620849609 28.06830024719238 C 87.35007476806641 33.43022537231445 88.5 39.12687683105469 88.5 45 C 88.5 50.87312316894531 87.35007476806641 56.56977462768555 85.08217620849609 61.93170166015625 C 82.89131164550781 67.11147308349609 79.75458526611328 71.76370239257812 75.75914764404297 75.75914764404297 C 71.76370239257812 79.75458526611328 67.11147308349609 82.89131164550781 61.93170166015625 85.08217620849609 C 56.56977462768555 87.35007476806641 50.87312316894531 88.5 45 88.5 Z" stroke="none"/>
          <path d="M 45 3 C 39.32871246337891 3 33.82865524291992 4.110054016113281 28.65262985229492 6.299339294433594 C 23.65165710449219 8.414573669433594 19.15968322753906 11.44334411621094 15.301513671875 15.301513671875 C 11.44334411621094 19.15968322753906 8.414573669433594 23.65165710449219 6.299339294433594 28.65262985229492 C 4.110054016113281 33.82865524291992 3 39.32871246337891 3 45 C 3 50.67128753662109 4.110054016113281 56.17134475708008 6.299339294433594 61.34737396240234 C 8.414573669433594 66.34834289550781 11.44334411621094 70.84031677246094 15.301513671875 74.698486328125 C 19.15968322753906 78.55665588378906 23.65165710449219 81.58542633056641 28.65262985229492 83.70066070556641 C 33.82865524291992 85.88994598388672 39.32871246337891 87 45 87 C 50.67128753662109 87 56.17134475708008 85.88994598388672 61.34737396240234 83.70066070556641 C 66.34834289550781 81.58542633056641 70.84031677246094 78.55665588378906 74.698486328125 74.698486328125 C 78.55665588378906 70.84031677246094 81.58542633056641 66.34834289550781 83.70066070556641 61.34737396240234 C 85.88994598388672 56.17134475708008 87 50.67128753662109 87 45 C 87 39.32871246337891 85.88994598388672 33.82865524291992 83.70066070556641 28.65262985229492 C 81.58542633056641 23.65165710449219 78.55665588378906 19.15968322753906 74.698486328125 15.301513671875 C 70.84031677246094 11.44334411621094 66.34834289550781 8.414573669433594 61.34737396240234 6.299339294433594 C 56.17134475708008 4.110054016113281 50.67128753662109 3 45 3 M 45 0 C 69.85281372070312 0 90 20.14718627929688 90 45 C 90 69.85281372070312 69.85281372070312 90 45 90 C 20.14718627929688 90 0 69.85281372070312 0 45 C 0 20.14718627929688 20.14718627929688 0 45 0 Z" stroke="none" fill="#205277"/>
        </g>
      </g>
      <g id="Big_Data-Folder-Computer-Server-Files" data-name="Big Data-Folder-Computer-Server-Files" transform="translate(637 4002.653)">
        <path id="Trazado_986575" data-name="Trazado 986575" d="M34,57a2,2,0,1,1,0,4H18a2,2,0,1,1,0-4Z" fill="#898890"/>
        <path id="Trazado_986576" data-name="Trazado 986576" d="M32,57H20l1-8H31Z" fill="#acabb1"/>
        <path id="Trazado_986577" data-name="Trazado 986577" d="M49,43v2a4,4,0,0,1-4,4H7a4,4,0,0,1-4-4V43Z" fill="#c6c5ca"/>
        <path id="Trazado_986578" data-name="Trazado 986578" d="M49,17V43H3V17a4,4,0,0,1,4-4H45A4,4,0,0,1,49,17Z" fill="#5aaae7"/>
        <path id="Trazado_986579" data-name="Trazado 986579" d="M31.25,51H20.75L21,49H31Z" fill="#898890"/>
        <path id="Trazado_986580" data-name="Trazado 986580" d="M38,26H35V20a1,1,0,0,0-1-1H22a1,1,0,0,0-1,1v1H19a2.006,2.006,0,0,0-2,2V39a2.006,2.006,0,0,0,2,2H37a2.006,2.006,0,0,0,2-2V27A1,1,0,0,0,38,26Z" fill="#3d9ae2"/>
        <path id="Trazado_986581" data-name="Trazado 986581" d="M25,24H36a1,1,0,0,1,1,1v4H26l-5-5H15V21a2.006,2.006,0,0,1,2-2h3Z" fill="#ee8700"/>
        <path id="Trazado_986582" data-name="Trazado 986582" d="M33,24v5H19V18a1,1,0,0,1,1-1H32a1,1,0,0,1,1,1Z" fill="#e6e7e8"/>
        <path id="Trazado_986583" data-name="Trazado 986583" d="M37,29v8a2.006,2.006,0,0,1-2,2H17a2.006,2.006,0,0,1-2-2V24h6l5,5Z" fill="#ff9811"/>
        <path id="Trazado_986584" data-name="Trazado 986584" d="M49,17V28.81c-4.62-.59-8-2.52-8-4.81V13h2.2a14.57,14.57,0,0,0,5.07,1.7A3.983,3.983,0,0,1,49,17Z" fill="#3d9ae2"/>
        <path id="Trazado_986585" data-name="Trazado 986585" d="M61,15v7c0,2.76-4.92,5-11,5s-11-2.24-11-5V15c0,2.76,4.92,5,11,5S61,17.76,61,15Z" fill="#acabb1"/>
        <path id="Trazado_986586" data-name="Trazado 986586" d="M61,8v7c0,2.76-4.92,5-11,5s-11-2.24-11-5V8c0,2.76,4.92,5,11,5S61,10.76,61,8Z" fill="#d8d7da"/>
        <ellipse id="Elipse_11603" data-name="Elipse 11603" cx="11" cy="5" rx="11" ry="5" transform="translate(39 3)" fill="#acabb1"/>
        <rect id="Rectángulo_408248" data-name="Rectángulo 408248" width="8" height="2" transform="translate(22 20)"/>
        <rect id="Rectángulo_408249" data-name="Rectángulo 408249" width="4" height="2" transform="translate(26 24)"/>
        <rect id="Rectángulo_408250" data-name="Rectángulo 408250" width="2" height="2" transform="translate(41 14)"/>
        <rect id="Rectángulo_408251" data-name="Rectángulo 408251" width="2" height="2" transform="translate(45 15)"/>
        <rect id="Rectángulo_408252" data-name="Rectángulo 408252" width="2" height="2" transform="translate(41 21)"/>
        <rect id="Rectángulo_408253" data-name="Rectángulo 408253" width="2" height="2" transform="translate(45 22)"/>
        <rect id="Rectángulo_408254" data-name="Rectángulo 408254" width="12" height="2" transform="translate(44 7)"/>
        <path id="Trazado_986587" data-name="Trazado 986587" d="M50,2C43.16,2,38,4.58,38,8v4H7a5,5,0,0,0-5,5V45a5,5,0,0,0,5,5H19.87l-.75,6H18a3,3,0,0,0,0,6H34a3,3,0,1,0,0-6H32.88l-.75-6H45a5,5,0,0,0,5-5V28c6.84,0,12-2.58,12-6V8C62,4.58,56.84,2,50,2ZM34,58a1,1,0,0,1,0,2H18a1,1,0,0,1,0-2ZM21.13,56l.75-6h8.24l.75,6ZM48,45a3.009,3.009,0,0,1-3,3H7a3.009,3.009,0,0,1-3-3V44H48Zm0-3H4V17a3.009,3.009,0,0,1,3-3H38v8c0,3.08,4.18,5.47,10,5.92ZM60,22c0,1.89-4.28,4-10,4s-10-2.11-10-4V18.41C42.11,19.99,45.73,21,50,21s7.89-1.01,10-2.59Zm0-7c0,1.89-4.28,4-10,4s-10-2.11-10-4V11.41C42.11,12.99,45.73,14,50,14s7.89-1.01,10-2.59ZM50,12c-5.72,0-10-2.11-10-4s4.28-4,10-4S60,6.11,60,8,55.72,12,50,12Z"/>
        <path id="Trazado_986588" data-name="Trazado 986588" d="M36,23H34V18a2.006,2.006,0,0,0-2-2H20a2.006,2.006,0,0,0-2,2H17a3.009,3.009,0,0,0-3,3V37a3.009,3.009,0,0,0,3,3H35a3.009,3.009,0,0,0,3-3V25A2.006,2.006,0,0,0,36,23ZM20,18H32V28H26.41l-4.7-4.71A1.033,1.033,0,0,0,21,23H20Zm-4,3a1,1,0,0,1,1-1h1v3H16ZM36,37a1,1,0,0,1-1,1H17a1,1,0,0,1-1-1V25h4.59l4.7,4.71A1.033,1.033,0,0,0,26,30H36Zm0-9H34V25h2Z"/>
      </g>
    </g>
  </g>
</svg>
