<svg xmlns="http://www.w3.org/2000/svg" xmlns:xlink="http://www.w3.org/1999/xlink" width="108" height="108" viewBox="0 0 108 108">
  <defs>
    <filter id="Trazado_982538" x="0" y="0" width="108" height="108" filterUnits="userSpaceOnUse">
      <feOffset dy="3" input="SourceAlpha"/>
      <feGaussianBlur stdDeviation="3" result="blur"/>
      <feFlood flood-opacity="0.161"/>
      <feComposite operator="in" in2="blur"/>
      <feComposite in="SourceGraphic"/>
    </filter>
    <clipPath id="clip-path">
      <rect id="Rectángulo_408232" data-name="Rectángulo 408232" width="56" height="60" fill="none"/>
    </clipPath>
  </defs>
  <g id="Grupo_1146955" data-name="Grupo 1146955" transform="translate(-201 -2969)">
    <g transform="matrix(1, 0, 0, 1, 201, 2969)" filter="url(#Trazado_982538)">
      <g id="Trazado_982538-2" data-name="Trazado 982538" transform="translate(9 6)" fill="#f3f3f3">
        <path d="M 45 88.5 C 39.12687683105469 88.5 33.43022537231445 87.35007476806641 28.06830024719238 85.08217620849609 C 22.88852500915527 82.89131164550781 18.23629951477051 79.75458526611328 14.2408504486084 75.75914764404297 C 10.24541282653809 71.76370239257812 7.108687400817871 67.11147308349609 4.917825222015381 61.93170166015625 C 2.649924993515015 56.56977462768555 1.5 50.87312316894531 1.5 45 C 1.5 39.12687683105469 2.649924993515015 33.43022537231445 4.917825222015381 28.06830024719238 C 7.108687400817871 22.88852500915527 10.24541282653809 18.23629951477051 14.2408504486084 14.2408504486084 C 18.23629951477051 10.24541282653809 22.88852500915527 7.108687400817871 28.06830024719238 4.917825222015381 C 33.43022537231445 2.649924993515015 39.12687683105469 1.5 45 1.5 C 50.87312316894531 1.5 56.56977462768555 2.649924993515015 61.93170166015625 4.917825222015381 C 67.11147308349609 7.108687400817871 71.76370239257812 10.24541282653809 75.75914764404297 14.2408504486084 C 79.75458526611328 18.23629951477051 82.89131164550781 22.88852500915527 85.08217620849609 28.06830024719238 C 87.35007476806641 33.43022537231445 88.5 39.12687683105469 88.5 45 C 88.5 50.87312316894531 87.35007476806641 56.56977462768555 85.08217620849609 61.93170166015625 C 82.89131164550781 67.11147308349609 79.75458526611328 71.76370239257812 75.75914764404297 75.75914764404297 C 71.76370239257812 79.75458526611328 67.11147308349609 82.89131164550781 61.93170166015625 85.08217620849609 C 56.56977462768555 87.35007476806641 50.87312316894531 88.5 45 88.5 Z" stroke="none"/>
        <path d="M 45 3 C 39.32871246337891 3 33.82865524291992 4.110054016113281 28.65262985229492 6.299339294433594 C 23.65165710449219 8.414573669433594 19.15968322753906 11.44334411621094 15.301513671875 15.301513671875 C 11.44334411621094 19.15968322753906 8.414573669433594 23.65165710449219 6.299339294433594 28.65262985229492 C 4.110054016113281 33.82865524291992 3 39.32871246337891 3 45 C 3 50.67128753662109 4.110054016113281 56.17134475708008 6.299339294433594 61.34737396240234 C 8.414573669433594 66.34834289550781 11.44334411621094 70.84031677246094 15.301513671875 74.698486328125 C 19.15968322753906 78.55665588378906 23.65165710449219 81.58542633056641 28.65262985229492 83.70066070556641 C 33.82865524291992 85.88994598388672 39.32871246337891 87 45 87 C 50.67128753662109 87 56.17134475708008 85.88994598388672 61.34737396240234 83.70066070556641 C 66.34834289550781 81.58542633056641 70.84031677246094 78.55665588378906 74.698486328125 74.698486328125 C 78.55665588378906 70.84031677246094 81.58542633056641 66.34834289550781 83.70066070556641 61.34737396240234 C 85.88994598388672 56.17134475708008 87 50.67128753662109 87 45 C 87 39.32871246337891 85.88994598388672 33.82865524291992 83.70066070556641 28.65262985229492 C 81.58542633056641 23.65165710449219 78.55665588378906 19.15968322753906 74.698486328125 15.301513671875 C 70.84031677246094 11.44334411621094 66.34834289550781 8.414573669433594 61.34737396240234 6.299339294433594 C 56.17134475708008 4.110054016113281 50.67128753662109 3 45 3 M 45 0 C 69.85281372070312 0 90 20.14718627929688 90 45 C 90 69.85281372070312 69.85281372070312 90 45 90 C 20.14718627929688 90 0 69.85281372070312 0 45 C 0 20.14718627929688 20.14718627929688 0 45 0 Z" stroke="none" fill="#fe9d52"/>
      </g>
    </g>
    <g id="Grupo_1148855" data-name="Grupo 1148855" transform="translate(228.5 2989)">
      <g id="Grupo_1148854" data-name="Grupo 1148854" clip-path="url(#clip-path)">
        <path id="Trazado_986495" data-name="Trazado 986495" d="M1,30V22c0,2.76,7.16,5,16,5s16-2.24,16-5v8c0,2.76-7.16,5-16,5S1,32.76,1,30" fill="#d8d7da"/>
        <path id="Trazado_986496" data-name="Trazado 986496" d="M1,14V6c0,2.76,7.16,5,16,5S33,8.76,33,6v8c0,2.76-7.16,5-16,5S1,16.76,1,14" fill="#d8d7da"/>
        <path id="Trazado_986497" data-name="Trazado 986497" d="M1,38V30c0,2.76,7.16,5,16,5s16-2.24,16-5v8c0,2.76-7.16,5-16,5S1,40.76,1,38" fill="#acabb1"/>
        <path id="Trazado_986498" data-name="Trazado 986498" d="M1,22V14c0,2.76,7.16,5,16,5s16-2.24,16-5v8c0,2.76-7.16,5-16,5S1,24.76,1,22" fill="#acabb1"/>
        <path id="Trazado_986499" data-name="Trazado 986499" d="M33,6c0,2.76-7.16,5-16,5S1,8.76,1,6,8.16,1,17,1,33,3.24,33,6" fill="#acabb1"/>
        <path id="Trazado_986500" data-name="Trazado 986500" d="M55,55v2a2.006,2.006,0,0,1-2,2H23a2.006,2.006,0,0,1-2-2V55Z" fill="#acabb1"/>
        <path id="Trazado_986501" data-name="Trazado 986501" d="M52,43l3,12H21l3-12Z" fill="#d8d7da"/>
        <path id="Trazado_986502" data-name="Trazado 986502" d="M52,29V43H24V29a2.006,2.006,0,0,1,2-2H50a2.006,2.006,0,0,1,2,2" fill="#5aaae7"/>
        <path id="Trazado_986503" data-name="Trazado 986503" d="M52,29V43H33L49,27h1a2.006,2.006,0,0,1,2,2" fill="#3d9ae2"/>
        <path id="Trazado_986504" data-name="Trazado 986504" d="M55.97,54.76,53,42.88V29a3.009,3.009,0,0,0-3-3H34V6c0-3.94-8.55-6-17-6S0,2.06,0,6V38c0,3.94,8.55,6,17,6a49.035,49.035,0,0,0,5.8-.34l-2.77,11.1A.986.986,0,0,0,20,55v2a3.009,3.009,0,0,0,3,3H53a3.009,3.009,0,0,0,3-3V55a.986.986,0,0,0-.03-.24M50,28a1,1,0,0,1,1,1V42H25V29a1,1,0,0,1,1-1ZM29.99,26A11.079,11.079,0,0,0,32,24.97V26ZM17,2c9.16,0,15,2.37,15,4s-5.84,4-15,4S2,7.63,2,6,7.84,2,17,2M2,8.97C5.02,10.96,11.03,12,17,12s11.98-1.04,15-3.03V14c0,1.63-5.84,4-15,4S2,15.63,2,14Zm0,8C5.02,18.96,11.03,20,17,20s11.98-1.04,15-3.03V22c0,1.63-5.84,4-15,4S2,23.63,2,22Zm0,8C5.02,26.96,11.03,28,17,28a50.9,50.9,0,0,0,6.37-.4A2.894,2.894,0,0,0,23,29v4.62A46.327,46.327,0,0,1,17,34C7.84,34,2,31.63,2,30ZM17,42C7.84,42,2,39.63,2,38V32.97C5.02,34.96,11.03,36,17,36a50.254,50.254,0,0,0,6-.36v5.98A46.327,46.327,0,0,1,17,42m7.78,2H51.22l2.5,10H22.28ZM54,57a1,1,0,0,1-1,1H23a1,1,0,0,1-1-1V56H54Z"/>
        <rect id="Rectángulo_408211" data-name="Rectángulo 408211" width="2" height="2" transform="translate(29 46)"/>
        <rect id="Rectángulo_408212" data-name="Rectángulo 408212" width="2" height="2" transform="translate(33 46)"/>
        <rect id="Rectángulo_408213" data-name="Rectángulo 408213" width="2" height="2" transform="translate(37 46)"/>
        <rect id="Rectángulo_408214" data-name="Rectángulo 408214" width="2" height="2" transform="translate(41 46)"/>
        <rect id="Rectángulo_408215" data-name="Rectángulo 408215" width="2" height="2" transform="translate(45 46)"/>
        <rect id="Rectángulo_408216" data-name="Rectángulo 408216" width="10" height="2" transform="translate(33 50)"/>
        <rect id="Rectángulo_408217" data-name="Rectángulo 408217" width="4" height="2" transform="translate(27 50)"/>
        <rect id="Rectángulo_408218" data-name="Rectángulo 408218" width="4" height="2" transform="translate(45 50)"/>
        <path id="Trazado_986505" data-name="Trazado 986505" d="M45,38H43V30H41v8H39V32H37v6H35V34H33v4H31v2H45Z"/>
        <rect id="Rectángulo_408219" data-name="Rectángulo 408219" width="2" height="2" transform="translate(4 12)"/>
        <rect id="Rectángulo_408220" data-name="Rectángulo 408220" width="2" height="2" transform="translate(8 13)"/>
        <rect id="Rectángulo_408221" data-name="Rectángulo 408221" width="2" height="2" transform="translate(12 14)"/>
        <rect id="Rectángulo_408222" data-name="Rectángulo 408222" width="2" height="2" transform="translate(4 20)"/>
        <rect id="Rectángulo_408223" data-name="Rectángulo 408223" width="2" height="2" transform="translate(8 21)"/>
        <rect id="Rectángulo_408224" data-name="Rectángulo 408224" width="2" height="2" transform="translate(12 22)"/>
        <rect id="Rectángulo_408225" data-name="Rectángulo 408225" width="2" height="2" transform="translate(4 28)"/>
        <rect id="Rectángulo_408226" data-name="Rectángulo 408226" width="2" height="2" transform="translate(8 29)"/>
        <rect id="Rectángulo_408227" data-name="Rectángulo 408227" width="2" height="2" transform="translate(12 30)"/>
        <rect id="Rectángulo_408228" data-name="Rectángulo 408228" width="2" height="2" transform="translate(4 36)"/>
        <rect id="Rectángulo_408229" data-name="Rectángulo 408229" width="2" height="2" transform="translate(8 37)"/>
        <rect id="Rectángulo_408230" data-name="Rectángulo 408230" width="2" height="2" transform="translate(12 38)"/>
        <rect id="Rectángulo_408231" data-name="Rectángulo 408231" width="12" height="2" transform="translate(11 5)"/>
      </g>
    </g>
  </g>
</svg>
