<svg xmlns="http://www.w3.org/2000/svg" width="400" height="392.581" viewBox="0 0 400 392.581">
  <g id="Grupo_1148860" data-name="Grupo 1148860" transform="translate(-600 -7920.244)">
    <path id="Trazado_986375" data-name="Trazado 986375" d="M682.539,567.178H587.881v94.658a94.658,94.658,0,1,0,94.658-94.658" transform="translate(222.804 7556.332)" fill="#b0d5f0"/>
    <path id="Trazado_986376" data-name="Trazado 986376" d="M786.644,694.782a71.173,71.173,0,1,1-71.173-71.173,71.173,71.173,0,0,1,71.173,71.173" transform="translate(186.605 7520.124)" fill="#fff"/>
    <path id="Trazado_986378" data-name="Trazado 986378" d="M197.242,567.178h72.2v72.2a72.2,72.2,0,1,1-72.2-72.2" transform="translate(519.769 7556.332)" fill="#d7e9f7"/>
    <path id="Trazado_986379" data-name="Trazado 986379" d="M181.977,664.506a54.286,54.286,0,1,0,54.286-54.286,54.286,54.286,0,0,0-54.286,54.286" transform="translate(483.24 7528.715)" fill="#fff"/>
    <path id="Trazado_986381" data-name="Trazado 986381" d="M94.658,189.314h94.658V94.657a94.658,94.658,0,1,0-94.658,94.658" transform="translate(600 7920.245)" fill="#205277"/>
    <path id="Trazado_986382" data-name="Trazado 986382" d="M74.643,145.8a71.173,71.173,0,1,1,71.173,71.173A71.173,71.173,0,0,1,74.643,145.8" transform="translate(552.108 7872.36)" fill="#fff"/>
    <path id="Trazado_986384" data-name="Trazado 986384" d="M660.373,269.733h-72.2v-72.2a72.2,72.2,0,1,1,72.2,72.2" transform="translate(222.615 7839.825)" fill="#3c97da"/>
    <path id="Trazado_986385" data-name="Trazado 986385" d="M739.777,236.546a54.286,54.286,0,1,0-54.286,54.286,54.286,54.286,0,0,0,54.286-54.286" transform="translate(195.006 7803.302)" fill="#fff"/>
    <path id="Trazado_986387" data-name="Trazado 986387" d="M535.516,495.031a29.139,29.139,0,1,1-29.139-29.14,29.139,29.139,0,0,1,29.139,29.14" transform="translate(293.795 7621.318)" fill="#112c40"/>
    <path id="Trazado_986615" data-name="Trazado 986615" d="M8.358,14H5.835V1.045H9.773l2.355,10.187L14.466,1.045H18.36V14H15.837V5.237q0-.378.009-1.059t.009-1.05L13.4,14H10.775L8.34,3.128q0,.369.009,1.05t.009,1.059Zm20.3-8.367a5.59,5.59,0,0,1,1.213,3.595,5.553,5.553,0,0,1-1.213,3.608,4.456,4.456,0,0,1-3.683,1.5,4.456,4.456,0,0,1-3.683-1.5,5.553,5.553,0,0,1-1.213-3.608A5.59,5.59,0,0,1,21.3,5.633,4.426,4.426,0,0,1,24.98,4.112,4.426,4.426,0,0,1,28.662,5.633Zm-3.691.6a2,2,0,0,0-1.692.778,3.6,3.6,0,0,0-.593,2.219,3.619,3.619,0,0,0,.593,2.224,2.216,2.216,0,0,0,3.379,0,3.639,3.639,0,0,0,.589-2.224,3.619,3.619,0,0,0-.589-2.219A1.99,1.99,0,0,0,24.971,6.23Zm11.208.044A1.744,1.744,0,0,0,34.43,7.355a3.713,3.713,0,0,0-.246,1.459V14h-2.5V4.438H34.1v1.4a4.252,4.252,0,0,1,.914-1.063,3.177,3.177,0,0,1,1.96-.58,3.7,3.7,0,0,1,2.43.778,3.163,3.163,0,0,1,.945,2.58V14H37.787V8.173a2.659,2.659,0,0,0-.2-1.16A1.422,1.422,0,0,0,36.179,6.274Zm9.2,9.4a2.117,2.117,0,0,0,1.362.343,1.83,1.83,0,0,0,1.811-.905,4.585,4.585,0,0,0,.3-1.951V12.55a3.055,3.055,0,0,1-.773.923,3.11,3.11,0,0,1-1.942.571,3.676,3.676,0,0,1-2.949-1.3,5.241,5.241,0,0,1-1.1-3.511,5.919,5.919,0,0,1,1.063-3.59,3.514,3.514,0,0,1,3.015-1.455,3.3,3.3,0,0,1,1.257.22A3.01,3.01,0,0,1,48.89,5.8V4.42h2.435v9.088A5.09,5.09,0,0,1,50.7,16.3q-1.072,1.617-4.113,1.617a5.6,5.6,0,0,1-3-.721,2.659,2.659,0,0,1-1.283-2.153h2.725A1.128,1.128,0,0,0,45.374,15.679Zm-.422-4.948a1.833,1.833,0,0,0,1.828,1.213,1.935,1.935,0,0,0,1.485-.664,3.072,3.072,0,0,0,.606-2.114A3.235,3.235,0,0,0,48.3,7.092a1.882,1.882,0,0,0-1.542-.712,1.818,1.818,0,0,0-1.819,1.239,4.395,4.395,0,0,0-.264,1.626A3.71,3.71,0,0,0,44.952,10.73Zm16.7-5.1a5.59,5.59,0,0,1,1.213,3.595,5.553,5.553,0,0,1-1.213,3.608,4.456,4.456,0,0,1-3.683,1.5,4.456,4.456,0,0,1-3.683-1.5,5.553,5.553,0,0,1-1.213-3.608,5.59,5.59,0,0,1,1.213-3.595,4.426,4.426,0,0,1,3.683-1.521A4.426,4.426,0,0,1,61.653,5.633Zm-3.691.6a2,2,0,0,0-1.692.778,3.6,3.6,0,0,0-.593,2.219,3.619,3.619,0,0,0,.593,2.224,2.216,2.216,0,0,0,3.379,0,3.639,3.639,0,0,0,.589-2.224,3.619,3.619,0,0,0-.589-2.219A1.99,1.99,0,0,0,57.962,6.23ZM70.444,14H64.863V1.045h5.581a6.809,6.809,0,0,1,2,.281A4.277,4.277,0,0,1,74.654,2.97a5.765,5.765,0,0,1,.923,2.092,10.042,10.042,0,0,1,.246,2.145,8.611,8.611,0,0,1-1.037,4.377A4.68,4.68,0,0,1,70.444,14Zm2.013-9.65a2.631,2.631,0,0,0-2.47-1.055h-2.5V11.75h2.5a2.7,2.7,0,0,0,2.672-1.89,6.665,6.665,0,0,0,.413-2.47A6.143,6.143,0,0,0,72.457,4.35ZM83.779,14H77.908V1.045H84.2a4,4,0,0,1,3.375,1.38,3.283,3.283,0,0,1,.6,1.978,2.892,2.892,0,0,1-.6,1.907,3.085,3.085,0,0,1-.984.738,2.888,2.888,0,0,1,1.5,1.143,3.424,3.424,0,0,1,.505,1.9,3.773,3.773,0,0,1-.58,2.065,3.587,3.587,0,0,1-2.4,1.67A9.075,9.075,0,0,1,83.779,14Zm-.062-5.7H80.492V11.75h3.182A3.123,3.123,0,0,0,85,11.521,1.627,1.627,0,0,0,85.862,9.9a1.389,1.389,0,0,0-.835-1.389A3.345,3.345,0,0,0,83.717,8.3Zm1.345-2.47a1.212,1.212,0,0,0,.527-1.134,1.159,1.159,0,0,0-.7-1.2,4.976,4.976,0,0,0-1.547-.2H80.492V6.151h3.182A2.648,2.648,0,0,0,85.062,5.826Z" transform="translate(651 8006.26)" fill="#0b0a0a"/>
    <path id="Trazado_986616" data-name="Trazado 986616" d="M24.861,8.92H22.066V14H19.421V1.045h6.354a5.92,5.92,0,0,1,2.1.334,3.275,3.275,0,0,1,1.244.905,4.011,4.011,0,0,1,.668,1.09,3.552,3.552,0,0,1,.246,1.362,3.881,3.881,0,0,1-.466,1.815,2.6,2.6,0,0,1-1.538,1.261A2.419,2.419,0,0,1,29.3,8.836a4.262,4.262,0,0,1,.374,2.026v.87a6.656,6.656,0,0,0,.07,1.2,1.082,1.082,0,0,0,.492.738V14H27.252q-.123-.431-.176-.694a6.379,6.379,0,0,1-.114-1.116l-.018-1.2a2.353,2.353,0,0,0-.453-1.652A2.4,2.4,0,0,0,24.861,8.92ZM26.5,6.564a1.443,1.443,0,0,0,.809-1.459,1.61,1.61,0,0,0-.782-1.582,2.956,2.956,0,0,0-1.318-.229H22.066v3.48h3.067A3.419,3.419,0,0,0,26.5,6.564Zm13.853,4.623a3.178,3.178,0,0,1-.888,1.731,4.349,4.349,0,0,1-3.445,1.4A4.858,4.858,0,0,1,32.8,13.139a4.75,4.75,0,0,1-1.4-3.832,5.326,5.326,0,0,1,1.261-3.814,4.312,4.312,0,0,1,3.274-1.327,5.021,5.021,0,0,1,2.153.448,3.772,3.772,0,0,1,1.582,1.415A4.828,4.828,0,0,1,40.4,8.006a12.771,12.771,0,0,1,.079,1.9H33.924a2.381,2.381,0,0,0,.905,2.021,2.132,2.132,0,0,0,1.248.36,1.8,1.8,0,0,0,1.257-.439,2.087,2.087,0,0,0,.466-.659ZM37.88,8.252a2.181,2.181,0,0,0-.6-1.507,1.87,1.87,0,0,0-1.34-.514,1.7,1.7,0,0,0-1.349.545,2.72,2.72,0,0,0-.6,1.477Zm13.01-7.189V14H48.455V12.673a3.533,3.533,0,0,1-1.222,1.239,3.43,3.43,0,0,1-1.705.387A3.56,3.56,0,0,1,42.7,12.941a5.215,5.215,0,0,1-1.147-3.485A6,6,0,0,1,42.685,5.6,3.674,3.674,0,0,1,45.7,4.191a3.09,3.09,0,0,1,1.547.382,3.043,3.043,0,0,1,1.1,1.059V1.063Zm-6.75,8.209a3.767,3.767,0,0,0,.527,2.118,1.756,1.756,0,0,0,1.582.8,1.849,1.849,0,0,0,1.617-.791,3.5,3.5,0,0,0,.554-2.048,3.141,3.141,0,0,0-.888-2.514,1.91,1.91,0,0,0-1.266-.457,1.759,1.759,0,0,0-1.613.831A3.848,3.848,0,0,0,44.139,9.271Zm11.6-4.852V14H53.2V4.42Zm0-3.454V3.277H53.2V.966Zm9.028,3.894a3.086,3.086,0,0,1,1.292,2.479h-2.5a1.482,1.482,0,0,0-.272-.765,1.714,1.714,0,0,0-1.406-.51,2.021,2.021,0,0,0-1.165.255.734.734,0,0,0-.347.6.654.654,0,0,0,.369.624,15.98,15.98,0,0,0,2.61.694A4.8,4.8,0,0,1,65.588,9.3a2.415,2.415,0,0,1,.738,1.8,2.911,2.911,0,0,1-1.059,2.325,4.976,4.976,0,0,1-3.274.9,4.929,4.929,0,0,1-3.335-.954,3.1,3.1,0,0,1-1.077-2.43h2.54a1.673,1.673,0,0,0,.343.949,2.317,2.317,0,0,0,1.723.5,2.626,2.626,0,0,0,1.173-.22.737.737,0,0,0,.083-1.3,14.3,14.3,0,0,0-2.61-.756A5.437,5.437,0,0,1,58.539,9.1a2.191,2.191,0,0,1-.668-1.723A2.988,2.988,0,0,1,58.913,5.1a4.183,4.183,0,0,1,2.931-.954A5.427,5.427,0,0,1,64.771,4.859Z" transform="translate(677 8181.26)" fill="#0b0a0a"/>
    <path id="Trazado_986617" data-name="Trazado 986617" d="M11.481,13.033A5.281,5.281,0,0,1,7.772,14.36a5.588,5.588,0,0,1-4.395-1.793,7.177,7.177,0,0,1-1.6-4.939A7.115,7.115,0,0,1,3.6,2.4,5.421,5.421,0,0,1,7.622.8,5.443,5.443,0,0,1,12.4,2.943a4.643,4.643,0,0,1,.9,2.417H10.593a3.656,3.656,0,0,0-.677-1.406A2.753,2.753,0,0,0,7.728,3.11,2.713,2.713,0,0,0,5.4,4.3a5.725,5.725,0,0,0-.853,3.371,5.025,5.025,0,0,0,.9,3.265,2.847,2.847,0,0,0,2.29,1.085,2.619,2.619,0,0,0,2.171-.932,4.047,4.047,0,0,0,.686-1.5h2.681A5.826,5.826,0,0,1,11.481,13.033ZM15.5,5.457a4.09,4.09,0,0,1,3.41-1.266,6.059,6.059,0,0,1,2.795.624,2.4,2.4,0,0,1,1.222,2.355v4.395q0,.457.018,1.107a1.392,1.392,0,0,0,.149.668.9.9,0,0,0,.369.29V14H20.737a2.79,2.79,0,0,1-.158-.545q-.044-.255-.07-.58a5.146,5.146,0,0,1-1.2.958,3.6,3.6,0,0,1-1.828.466,3.143,3.143,0,0,1-2.149-.743,2.649,2.649,0,0,1-.848-2.1,2.732,2.732,0,0,1,1.362-2.558,6.049,6.049,0,0,1,2.2-.615l.853-.105a3.91,3.91,0,0,0,.993-.22.753.753,0,0,0,.536-.712.845.845,0,0,0-.409-.813,2.553,2.553,0,0,0-1.2-.224,1.563,1.563,0,0,0-1.257.439,1.827,1.827,0,0,0-.352.879H14.8A3.676,3.676,0,0,1,15.5,5.457Zm1.863,6.732a1.309,1.309,0,0,0,.861.29A2.551,2.551,0,0,0,19.713,12a2.024,2.024,0,0,0,.708-1.731V9.342a2.722,2.722,0,0,1-.479.242,4.006,4.006,0,0,1-.664.171l-.562.105a3.632,3.632,0,0,0-1.134.343A1.149,1.149,0,0,0,17,11.267,1.1,1.1,0,0,0,17.362,12.189Zm14.389-7.33a3.086,3.086,0,0,1,1.292,2.479h-2.5a1.482,1.482,0,0,0-.272-.765,1.714,1.714,0,0,0-1.406-.51,2.021,2.021,0,0,0-1.165.255.734.734,0,0,0-.347.6.654.654,0,0,0,.369.624,15.98,15.98,0,0,0,2.61.694A4.8,4.8,0,0,1,32.569,9.3a2.415,2.415,0,0,1,.738,1.8,2.911,2.911,0,0,1-1.059,2.325,4.976,4.976,0,0,1-3.274.9,4.929,4.929,0,0,1-3.335-.954,3.1,3.1,0,0,1-1.077-2.43H27.1a1.673,1.673,0,0,0,.343.949,2.317,2.317,0,0,0,1.723.5,2.626,2.626,0,0,0,1.173-.22.737.737,0,0,0,.083-1.3,14.3,14.3,0,0,0-2.61-.756A5.437,5.437,0,0,1,25.52,9.1a2.191,2.191,0,0,1-.668-1.723A2.988,2.988,0,0,1,25.894,5.1a4.183,4.183,0,0,1,2.931-.954A5.427,5.427,0,0,1,31.752,4.859Zm10.013,0a3.086,3.086,0,0,1,1.292,2.479h-2.5a1.482,1.482,0,0,0-.272-.765,1.714,1.714,0,0,0-1.406-.51,2.021,2.021,0,0,0-1.165.255.734.734,0,0,0-.347.6.654.654,0,0,0,.369.624,15.98,15.98,0,0,0,2.61.694A4.8,4.8,0,0,1,42.582,9.3a2.415,2.415,0,0,1,.738,1.8,2.911,2.911,0,0,1-1.059,2.325,4.976,4.976,0,0,1-3.274.9,4.929,4.929,0,0,1-3.335-.954,3.1,3.1,0,0,1-1.077-2.43h2.54a1.673,1.673,0,0,0,.343.949,2.317,2.317,0,0,0,1.723.5,2.626,2.626,0,0,0,1.173-.22.737.737,0,0,0,.083-1.3,14.3,14.3,0,0,0-2.61-.756A5.437,5.437,0,0,1,35.533,9.1a2.191,2.191,0,0,1-.668-1.723A2.988,2.988,0,0,1,35.906,5.1a4.183,4.183,0,0,1,2.931-.954A5.427,5.427,0,0,1,41.764,4.859Zm3.772.6a4.09,4.09,0,0,1,3.41-1.266,6.059,6.059,0,0,1,2.795.624,2.4,2.4,0,0,1,1.222,2.355v4.395q0,.457.018,1.107a1.392,1.392,0,0,0,.149.668.9.9,0,0,0,.369.29V14H50.775a2.79,2.79,0,0,1-.158-.545q-.044-.255-.07-.58a5.146,5.146,0,0,1-1.2.958,3.6,3.6,0,0,1-1.828.466,3.143,3.143,0,0,1-2.149-.743,2.649,2.649,0,0,1-.848-2.1,2.732,2.732,0,0,1,1.362-2.558,6.049,6.049,0,0,1,2.2-.615l.853-.105a3.91,3.91,0,0,0,.993-.22.753.753,0,0,0,.536-.712.845.845,0,0,0-.409-.813,2.553,2.553,0,0,0-1.2-.224,1.563,1.563,0,0,0-1.257.439,1.827,1.827,0,0,0-.352.879H44.833A3.676,3.676,0,0,1,45.537,5.457ZM47.4,12.189a1.309,1.309,0,0,0,.861.29A2.551,2.551,0,0,0,49.751,12a2.024,2.024,0,0,0,.708-1.731V9.342a2.722,2.722,0,0,1-.479.242,4.006,4.006,0,0,1-.664.171l-.562.105a3.632,3.632,0,0,0-1.134.343,1.149,1.149,0,0,0-.58,1.063A1.1,1.1,0,0,0,47.4,12.189ZM59.7,6.274a1.744,1.744,0,0,0-1.749,1.081A3.713,3.713,0,0,0,57.7,8.814V14h-2.5V4.438h2.417v1.4a4.252,4.252,0,0,1,.914-1.063,3.177,3.177,0,0,1,1.96-.58,3.7,3.7,0,0,1,2.43.778,3.163,3.163,0,0,1,.945,2.58V14H61.306V8.173a2.659,2.659,0,0,0-.2-1.16A1.422,1.422,0,0,0,59.7,6.274ZM74.9,1.063V14H72.47V12.673a3.533,3.533,0,0,1-1.222,1.239,3.43,3.43,0,0,1-1.705.387,3.56,3.56,0,0,1-2.826-1.358A5.215,5.215,0,0,1,65.57,9.456,6,6,0,0,1,66.7,5.6a3.674,3.674,0,0,1,3.019-1.406,3.09,3.09,0,0,1,1.547.382,3.043,3.043,0,0,1,1.1,1.059V1.063Zm-6.75,8.209a3.767,3.767,0,0,0,.527,2.118,1.756,1.756,0,0,0,1.582.8,1.849,1.849,0,0,0,1.617-.791,3.5,3.5,0,0,0,.554-2.048,3.141,3.141,0,0,0-.888-2.514,1.91,1.91,0,0,0-1.266-.457,1.759,1.759,0,0,0-1.613.831A3.848,3.848,0,0,0,68.154,9.271ZM82,6.731a2.078,2.078,0,0,0-2.03.984,3.829,3.829,0,0,0-.29,1.705V14H77.156V4.42h2.391V6.09a5.3,5.3,0,0,1,1.011-1.31,2.752,2.752,0,0,1,1.828-.589q.07,0,.119,0l.215.013V6.775q-.237-.026-.422-.035T82,6.731ZM84.55,5.457a4.09,4.09,0,0,1,3.41-1.266,6.059,6.059,0,0,1,2.795.624,2.4,2.4,0,0,1,1.222,2.355v4.395q0,.457.018,1.107a1.392,1.392,0,0,0,.149.668.9.9,0,0,0,.369.29V14H89.788a2.79,2.79,0,0,1-.158-.545q-.044-.255-.07-.58a5.146,5.146,0,0,1-1.2.958,3.6,3.6,0,0,1-1.828.466,3.143,3.143,0,0,1-2.149-.743,2.649,2.649,0,0,1-.848-2.1A2.732,2.732,0,0,1,84.9,8.894a6.049,6.049,0,0,1,2.2-.615l.853-.105a3.91,3.91,0,0,0,.993-.22.753.753,0,0,0,.536-.712.845.845,0,0,0-.409-.813,2.553,2.553,0,0,0-1.2-.224,1.563,1.563,0,0,0-1.257.439,1.827,1.827,0,0,0-.352.879H83.847A3.676,3.676,0,0,1,84.55,5.457Zm1.863,6.732a1.309,1.309,0,0,0,.861.29A2.551,2.551,0,0,0,88.764,12a2.024,2.024,0,0,0,.708-1.731V9.342a2.722,2.722,0,0,1-.479.242,4.006,4.006,0,0,1-.664.171l-.562.105a3.632,3.632,0,0,0-1.134.343,1.149,1.149,0,0,0-.58,1.063A1.1,1.1,0,0,0,86.413,12.189Z" transform="translate(833 8028.26)" fill="#0b0a0a"/>
    <path id="Trazado_986618" data-name="Trazado 986618" d="M29.836,14H27.129L21.838,4.8V14H19.315V1.045h2.839l5.159,9.044V1.045h2.522Zm10.522-2.812a3.178,3.178,0,0,1-.888,1.731,4.349,4.349,0,0,1-3.445,1.4A4.858,4.858,0,0,1,32.8,13.139a4.75,4.75,0,0,1-1.4-3.832,5.326,5.326,0,0,1,1.261-3.814,4.312,4.312,0,0,1,3.274-1.327,5.021,5.021,0,0,1,2.153.448,3.772,3.772,0,0,1,1.582,1.415A4.828,4.828,0,0,1,40.4,8.006a12.771,12.771,0,0,1,.079,1.9H33.924a2.381,2.381,0,0,0,.905,2.021,2.132,2.132,0,0,0,1.248.36,1.8,1.8,0,0,0,1.257-.439,2.087,2.087,0,0,0,.466-.659ZM37.88,8.252a2.181,2.181,0,0,0-.6-1.507,1.87,1.87,0,0,0-1.34-.514,1.7,1.7,0,0,0-1.349.545,2.72,2.72,0,0,0-.6,1.477ZM50.16,5.633a5.59,5.59,0,0,1,1.213,3.595,5.553,5.553,0,0,1-1.213,3.608,4.456,4.456,0,0,1-3.683,1.5,4.456,4.456,0,0,1-3.683-1.5,5.553,5.553,0,0,1-1.213-3.608,5.59,5.59,0,0,1,1.213-3.595,4.426,4.426,0,0,1,3.683-1.521A4.426,4.426,0,0,1,50.16,5.633Zm-3.691.6a2,2,0,0,0-1.692.778,3.6,3.6,0,0,0-.593,2.219,3.619,3.619,0,0,0,.593,2.224,2.216,2.216,0,0,0,3.379,0,3.639,3.639,0,0,0,.589-2.224,3.619,3.619,0,0,0-.589-2.219A1.99,1.99,0,0,0,46.468,6.23ZM61.411,9.3v1.96H59.97V14H57.518V11.258H52.473V9.069l4.685-7.734H59.97V9.3Zm-7.084,0h3.19V3.8Zm8.967-4.834h2.5V15.028a3.338,3.338,0,0,1-.571,2.145,2.826,2.826,0,0,1-2.241.694q-.114,0-.338-.009t-.558-.018v-2q.211.018.3.022t.158,0a.78.78,0,0,0,.558-.18.968.968,0,0,0,.189-.7Zm0-3.5h2.5V3.277h-2.5Z" transform="translate(860 8203.26)" fill="#0b0a0a"/>
  </g>
</svg>
