<svg xmlns="http://www.w3.org/2000/svg" xmlns:xlink="http://www.w3.org/1999/xlink" width="108" height="108" viewBox="0 0 108 108">
  <defs>
    <filter id="Trazado_982547" x="0" y="0" width="108" height="108" filterUnits="userSpaceOnUse">
      <feOffset dy="3" input="SourceAlpha"/>
      <feGaussianBlur stdDeviation="3" result="blur"/>
      <feFlood flood-opacity="0.161"/>
      <feComposite operator="in" in2="blur"/>
      <feComposite in="SourceGraphic"/>
    </filter>
  </defs>
  <g id="Grupo_1148856" data-name="Grupo 1148856" transform="translate(-201 -8437.454)">
    <g id="Grupo_1148814" data-name="Grupo 1148814" transform="translate(0 5656.454)">
      <g id="Grupo_1146954" data-name="Grupo 1146954" transform="translate(-415 -1202)">
        <g transform="matrix(1, 0, 0, 1, 616, 3983)" filter="url(#Trazado_982547)">
          <g id="Trazado_982547-2" data-name="Trazado 982547" transform="translate(9 6)" fill="#fdeffe">
            <path d="M 45 88.5 C 39.12687683105469 88.5 33.43022537231445 87.35007476806641 28.06830024719238 85.08217620849609 C 22.88852500915527 82.89131164550781 18.23629951477051 79.75458526611328 14.2408504486084 75.75914764404297 C 10.24541282653809 71.76370239257812 7.108687400817871 67.11147308349609 4.917825222015381 61.93170166015625 C 2.649924993515015 56.56977462768555 1.5 50.87312316894531 1.5 45 C 1.5 39.12687683105469 2.649924993515015 33.43022537231445 4.917825222015381 28.06830024719238 C 7.108687400817871 22.88852500915527 10.24541282653809 18.23629951477051 14.2408504486084 14.2408504486084 C 18.23629951477051 10.24541282653809 22.88852500915527 7.108687400817871 28.06830024719238 4.917825222015381 C 33.43022537231445 2.649924993515015 39.12687683105469 1.5 45 1.5 C 50.87312316894531 1.5 56.56977462768555 2.649924993515015 61.93170166015625 4.917825222015381 C 67.11147308349609 7.108687400817871 71.76370239257812 10.24541282653809 75.75914764404297 14.2408504486084 C 79.75458526611328 18.23629951477051 82.89131164550781 22.88852500915527 85.08217620849609 28.06830024719238 C 87.35007476806641 33.43022537231445 88.5 39.12687683105469 88.5 45 C 88.5 50.87312316894531 87.35007476806641 56.56977462768555 85.08217620849609 61.93170166015625 C 82.89131164550781 67.11147308349609 79.75458526611328 71.76370239257812 75.75914764404297 75.75914764404297 C 71.76370239257812 79.75458526611328 67.11147308349609 82.89131164550781 61.93170166015625 85.08217620849609 C 56.56977462768555 87.35007476806641 50.87312316894531 88.5 45 88.5 Z" stroke="none"/>
            <path d="M 45 3 C 39.32871246337891 3 33.82865524291992 4.110054016113281 28.65262985229492 6.299339294433594 C 23.65165710449219 8.414573669433594 19.15968322753906 11.44334411621094 15.301513671875 15.301513671875 C 11.44334411621094 19.15968322753906 8.414573669433594 23.65165710449219 6.299339294433594 28.65262985229492 C 4.110054016113281 33.82865524291992 3 39.32871246337891 3 45 C 3 50.67128753662109 4.110054016113281 56.17134475708008 6.299339294433594 61.34737396240234 C 8.414573669433594 66.34834289550781 11.44334411621094 70.84031677246094 15.301513671875 74.698486328125 C 19.15968322753906 78.55665588378906 23.65165710449219 81.58542633056641 28.65262985229492 83.70066070556641 C 33.82865524291992 85.88994598388672 39.32871246337891 87 45 87 C 50.67128753662109 87 56.17134475708008 85.88994598388672 61.34737396240234 83.70066070556641 C 66.34834289550781 81.58542633056641 70.84031677246094 78.55665588378906 74.698486328125 74.698486328125 C 78.55665588378906 70.84031677246094 81.58542633056641 66.34834289550781 83.70066070556641 61.34737396240234 C 85.88994598388672 56.17134475708008 87 50.67128753662109 87 45 C 87 39.32871246337891 85.88994598388672 33.82865524291992 83.70066070556641 28.65262985229492 C 81.58542633056641 23.65165710449219 78.55665588378906 19.15968322753906 74.698486328125 15.301513671875 C 70.84031677246094 11.44334411621094 66.34834289550781 8.414573669433594 61.34737396240234 6.299339294433594 C 56.17134475708008 4.110054016113281 50.67128753662109 3 45 3 M 45 0 C 69.85281372070312 0 90 20.14718627929688 90 45 C 90 69.85281372070312 69.85281372070312 90 45 90 C 20.14718627929688 90 0 69.85281372070312 0 45 C 0 20.14718627929688 20.14718627929688 0 45 0 Z" stroke="none" fill="#ee70f7"/>
          </g>
        </g>
      </g>
    </g>
    <g id="Big_Data-Storage-Server-Network-Database" data-name="Big Data-Storage-Server-Network-Database" transform="translate(223 8453)">
      <path id="Trazado_986589" data-name="Trazado 986589" d="M43,15v7c0,2.76-4.92,5-11,5s-11-2.24-11-5V15c0,2.76,4.92,5,11,5S43,17.76,43,15Z" fill="#acabb1"/>
      <path id="Trazado_986590" data-name="Trazado 986590" d="M43,8v7c0,2.76-4.92,5-11,5s-11-2.24-11-5V8c0,2.76,4.92,5,11,5S43,10.76,43,8Z" fill="#d8d7da"/>
      <ellipse id="Elipse_11604" data-name="Elipse 11604" cx="11" cy="5" rx="11" ry="5" transform="translate(21 3)" fill="#acabb1"/>
      <path id="Trazado_986591" data-name="Trazado 986591" d="M60,49v7c0,2.76-4.92,5-11,5s-11-2.24-11-5V49c0,2.76,4.92,5,11,5S60,51.76,60,49Z" fill="#acabb1"/>
      <path id="Trazado_986592" data-name="Trazado 986592" d="M60,42v7c0,2.76-4.92,5-11,5s-11-2.24-11-5V42c0,2.76,4.92,5,11,5S60,44.76,60,42Z" fill="#d8d7da"/>
      <ellipse id="Elipse_11605" data-name="Elipse 11605" cx="11" cy="5" rx="11" ry="5" transform="translate(38 37)" fill="#acabb1"/>
      <path id="Trazado_986593" data-name="Trazado 986593" d="M26,49v7c0,2.76-4.92,5-11,5S4,58.76,4,56V49c0,2.76,4.92,5,11,5S26,51.76,26,49Z" fill="#acabb1"/>
      <path id="Trazado_986594" data-name="Trazado 986594" d="M26,42v7c0,2.76-4.92,5-11,5S4,51.76,4,49V42c0,2.76,4.92,5,11,5S26,44.76,26,42Z" fill="#d8d7da"/>
      <ellipse id="Elipse_11606" data-name="Elipse 11606" cx="11" cy="5" rx="11" ry="5" transform="translate(4 37)" fill="#acabb1"/>
      <circle id="Elipse_11607" data-name="Elipse 11607" cx="2" cy="2" r="2" transform="translate(30 31)" fill="#ff9811"/>
      <rect id="Rectángulo_408255" data-name="Rectángulo 408255" width="2" height="2" transform="translate(23 14)"/>
      <rect id="Rectángulo_408256" data-name="Rectángulo 408256" width="2" height="2" transform="translate(27 15)"/>
      <rect id="Rectángulo_408257" data-name="Rectángulo 408257" width="2" height="2" transform="translate(23 21)"/>
      <rect id="Rectángulo_408258" data-name="Rectángulo 408258" width="2" height="2" transform="translate(27 22)"/>
      <rect id="Rectángulo_408259" data-name="Rectángulo 408259" width="12" height="2" transform="translate(26 7)"/>
      <rect id="Rectángulo_408260" data-name="Rectángulo 408260" width="2" height="2" transform="translate(6 48)"/>
      <rect id="Rectángulo_408261" data-name="Rectángulo 408261" width="2" height="2" transform="translate(10 49)"/>
      <rect id="Rectángulo_408262" data-name="Rectángulo 408262" width="2" height="2" transform="translate(6 55)"/>
      <rect id="Rectángulo_408263" data-name="Rectángulo 408263" width="2" height="2" transform="translate(10 56)"/>
      <rect id="Rectángulo_408264" data-name="Rectángulo 408264" width="12" height="2" transform="translate(9 41)"/>
      <rect id="Rectángulo_408265" data-name="Rectángulo 408265" width="2" height="2" transform="translate(40 48)"/>
      <rect id="Rectángulo_408266" data-name="Rectángulo 408266" width="2" height="2" transform="translate(44 49)"/>
      <rect id="Rectángulo_408267" data-name="Rectángulo 408267" width="2" height="2" transform="translate(40 55)"/>
      <rect id="Rectángulo_408268" data-name="Rectángulo 408268" width="2" height="2" transform="translate(44 56)"/>
      <rect id="Rectángulo_408269" data-name="Rectángulo 408269" width="12" height="2" transform="translate(43 41)"/>
      <path id="Trazado_986595" data-name="Trazado 986595" d="M50,36.02V33a1,1,0,0,0-1-1H34.82A3.035,3.035,0,0,0,33,30.18v-2.2c6.34-.24,11-2.73,11-5.98V8c0-3.42-5.16-6-12-6S20,4.58,20,8V22c0,3.25,4.66,5.74,11,5.98v2.2A3.035,3.035,0,0,0,29.18,32H15a1,1,0,0,0-1,1v3.02C7.66,36.26,3,38.75,3,42V56c0,3.42,5.16,6,12,6s12-2.58,12-6V42c0-3.25-4.66-5.74-11-5.98V34H29.18a2.988,2.988,0,0,0,5.64,0H48v2.02c-6.34.24-11,2.73-11,5.98V56c0,3.42,5.16,6,12,6s12-2.58,12-6V42C61,38.75,56.34,36.26,50,36.02ZM25,56c0,1.89-4.28,4-10,4S5,57.89,5,56V52.41C7.11,53.99,10.73,55,15,55s7.89-1.01,10-2.59Zm0-7c0,1.89-4.28,4-10,4S5,50.89,5,49V45.41C7.11,46.99,10.73,48,15,48s7.89-1.01,10-2.59Zm0-7c0,1.89-4.28,4-10,4S5,43.89,5,42s4.28-4,10-4S25,40.11,25,42ZM32,4c5.72,0,10,2.11,10,4s-4.28,4-10,4S22,9.89,22,8,26.28,4,32,4ZM22,11.41C24.11,12.99,27.73,14,32,14s7.89-1.01,10-2.59V15c0,1.89-4.28,4-10,4s-10-2.11-10-4ZM22,22V18.41C24.11,19.99,27.73,21,32,21s7.89-1.01,10-2.59V22c0,1.89-4.28,4-10,4S22,23.89,22,22ZM32,34a1,1,0,1,1,1-1A1,1,0,0,1,32,34ZM59,56c0,1.89-4.28,4-10,4s-10-2.11-10-4V52.41C41.11,53.99,44.73,55,49,55s7.89-1.01,10-2.59Zm0-7c0,1.89-4.28,4-10,4s-10-2.11-10-4V45.41C41.11,46.99,44.73,48,49,48s7.89-1.01,10-2.59ZM49,46c-5.72,0-10-2.11-10-4s4.28-4,10-4,10,2.11,10,4S54.72,46,49,46Z"/>
    </g>
  </g>
</svg>
