<svg xmlns="http://www.w3.org/2000/svg" xmlns:xlink="http://www.w3.org/1999/xlink" width="113" height="113" viewBox="0 0 113 113">
  <defs>
    <filter id="Trazado_982547" x="0" y="0" width="113" height="113" filterUnits="userSpaceOnUse">
      <feOffset dy="3" input="SourceAlpha"/>
      <feGaussianBlur stdDeviation="3" result="blur"/>
      <feFlood flood-opacity="0.161"/>
      <feComposite operator="in" in2="blur"/>
      <feComposite in="SourceGraphic"/>
    </filter>
  </defs>
  <g id="Grupo_1148578" data-name="Grupo 1148578" transform="translate(-324 -3704.178)">
    <g id="Grupo_1147086" data-name="Grupo 1147086" transform="translate(333 3710.178)">
      <g transform="matrix(1, 0, 0, 1, -9, -6)" filter="url(#Trazado_982547)">
        <g id="Trazado_982547-2" data-name="Trazado 982547" transform="translate(9 6)" fill="#fdeffe">
          <path d="M 47.5 93.5 C 41.28937149047852 93.5 35.26533508300781 92.28397369384766 29.59518623352051 89.88570404052734 C 24.11771965026855 87.56893157958984 19.19813346862793 84.25196075439453 14.97309303283691 80.02691650390625 C 10.74804019927979 75.80186462402344 7.431066513061523 70.88229370117188 5.114293098449707 65.40481567382812 C 2.716026782989502 59.73468017578125 1.5 53.71062850952148 1.5 47.5 C 1.5 41.28937149047852 2.716026782989502 35.26533508300781 5.114293098449707 29.59518623352051 C 7.431066513061523 24.11771965026855 10.74804019927979 19.19813346862793 14.97309303283691 14.97309303283691 C 19.19813346862793 10.74804019927979 24.11771965026855 7.431066513061523 29.59518623352051 5.114293098449707 C 35.26533508300781 2.716026782989502 41.28937149047852 1.5 47.5 1.5 C 53.71062850952148 1.5 59.73468017578125 2.716026782989502 65.40481567382812 5.114293098449707 C 70.88229370117188 7.431066513061523 75.80186462402344 10.74804019927979 80.02691650390625 14.97309303283691 C 84.25196075439453 19.19813346862793 87.56893157958984 24.11771965026855 89.88570404052734 29.59518623352051 C 92.28397369384766 35.26533508300781 93.5 41.28937149047852 93.5 47.5 C 93.5 53.71062850952148 92.28397369384766 59.73468017578125 89.88570404052734 65.40481567382812 C 87.56893157958984 70.88229370117188 84.25196075439453 75.80186462402344 80.02691650390625 80.02691650390625 C 75.80186462402344 84.25196075439453 70.88229370117188 87.56893157958984 65.40481567382812 89.88570404052734 C 59.73468017578125 92.28397369384766 53.71062850952148 93.5 47.5 93.5 Z" stroke="none"/>
          <path d="M 47.5 3 C 41.49121475219727 3 35.66376876831055 4.176155090332031 30.17950439453125 6.495796203613281 C 24.88084411621094 8.736953735351562 20.12152099609375 11.94598388671875 16.03375244140625 16.03375244140625 C 11.94598388671875 20.12152099609375 8.736953735351562 24.88084411621094 6.495796203613281 30.17950439453125 C 4.176155090332031 35.66376876831055 3 41.49121475219727 3 47.5 C 3 53.50878524780273 4.176155090332031 59.33623123168945 6.495796203613281 64.82049560546875 C 8.736953735351562 70.11915588378906 11.94598388671875 74.87847900390625 16.03375244140625 78.96624755859375 C 20.12152099609375 83.05401611328125 24.88084411621094 86.26304626464844 30.17950439453125 88.50419616699219 C 35.66376876831055 90.82384490966797 41.49121475219727 92 47.5 92 C 53.50878524780273 92 59.33623123168945 90.82384490966797 64.82049560546875 88.50419616699219 C 70.11915588378906 86.26304626464844 74.87847900390625 83.05401611328125 78.96624755859375 78.96624755859375 C 83.05401611328125 74.87847900390625 86.26304626464844 70.11915588378906 88.50419616699219 64.82049560546875 C 90.82384490966797 59.33623123168945 92 53.50878524780273 92 47.5 C 92 41.49121475219727 90.82384490966797 35.66376876831055 88.50419616699219 30.17950439453125 C 86.26304626464844 24.88084411621094 83.05401611328125 20.12152099609375 78.96624755859375 16.03375244140625 C 74.87847900390625 11.94598388671875 70.11915588378906 8.736953735351562 64.82049560546875 6.495796203613281 C 59.33623123168945 4.176155090332031 53.50878524780273 3 47.5 3 M 47.5 0 C 73.7335205078125 0 95 21.2664794921875 95 47.5 C 95 73.7335205078125 73.7335205078125 95 47.5 95 C 21.2664794921875 95 0 73.7335205078125 0 47.5 C 0 21.2664794921875 21.2664794921875 0 47.5 0 Z" stroke="none" fill="#ee70f7"/>
        </g>
      </g>
      <g id="Layer_2" data-name="Layer 2" transform="translate(24 21.371)">
        <g id="_1" data-name="1">
          <path id="Trazado_986527" data-name="Trazado 986527" d="M24,15.66a.76.76,0,0,1-.76-.75V10.86a.76.76,0,1,1,1.52,0v4.05a.76.76,0,0,1-.76.75Z" fill="#2c3d60"/>
          <path id="Trazado_986528" data-name="Trazado 986528" d="M33.09,24.76a.79.79,0,0,1-.53-.22L24,16l-8.56,8.56a.76.76,0,1,1-1.07-1.08l9.09-9.09a.76.76,0,0,1,1.08,0l9.09,9.09a.76.76,0,0,1,0,1.08A.79.79,0,0,1,33.09,24.76Z" fill="#2c3d60"/>
          <path id="Trazado_986529" data-name="Trazado 986529" d="M42.19,43a.81.81,0,0,1-.54-.22l-8.56-8.56-8.55,8.56a.764.764,0,1,1-1.08-1.08l9.1-9.09a.75.75,0,0,1,1.07,0l9.1,9.09a.78.78,0,0,1,0,1.08A.81.81,0,0,1,42.19,43Z" fill="#2c3d60"/>
          <path id="Trazado_986530" data-name="Trazado 986530" d="M24,43a.81.81,0,0,1-.54-.22l-8.55-8.56L6.35,42.73a.764.764,0,1,1-1.08-1.08l9.1-9.09a.75.75,0,0,1,1.07,0l9.1,9.09a.78.78,0,0,1,0,1.08A.81.81,0,0,1,24,43Z" fill="#2c3d60"/>
          <path id="Trazado_986531" data-name="Trazado 986531" d="M14.91,33.85a.76.76,0,0,1-.76-.76v-4a.76.76,0,1,1,1.51,0v4a.76.76,0,0,1-.75.76Z" fill="#2c3d60"/>
          <path id="Trazado_986532" data-name="Trazado 986532" d="M33.09,33.85a.76.76,0,0,1-.75-.76v-4a.76.76,0,1,1,1.51,0v4A.76.76,0,0,1,33.09,33.85Z" fill="#2c3d60"/>
          <rect id="Rectángulo_408233" data-name="Rectángulo 408233" width="10.11" height="10.11" rx="2" transform="translate(18.95 0.76)" fill="#e78251"/>
          <rect id="Rectángulo_408234" data-name="Rectángulo 408234" width="7.07" height="10.11" rx="2" transform="translate(18.95 0.76)" fill="#f4c08e"/>
          <path id="Trazado_986533" data-name="Trazado 986533" d="M26.02,10.86H20.97L21.98.76h5.05Z" fill="#feb166"/>
          <path id="Trazado_986534" data-name="Trazado 986534" d="M27,11.62H21a2.79,2.79,0,0,1-2.78-2.78V2.78A2.79,2.79,0,0,1,21,0h6a2.79,2.79,0,0,1,2.78,2.78V8.84A2.79,2.79,0,0,1,27,11.62ZM21,1.52a1.25,1.25,0,0,0-1.26,1.26V8.84A1.26,1.26,0,0,0,21,10.11h6a1.26,1.26,0,0,0,1.26-1.27V2.78A1.25,1.25,0,0,0,27,1.52Z" fill="#2c3d60"/>
          <rect id="Rectángulo_408235" data-name="Rectángulo 408235" width="10.11" height="10.11" rx="2" transform="translate(28.04 18.95)" fill="#8396ff"/>
          <rect id="Rectángulo_408236" data-name="Rectángulo 408236" width="7.07" height="10.11" rx="2" transform="translate(28.04 18.95)" fill="#b5daff"/>
          <path id="Trazado_986535" data-name="Trazado 986535" d="M35.12,29.05H30.06l1.01-10.1h5.06Z" fill="#8eb6ff"/>
          <path id="Trazado_986536" data-name="Trazado 986536" d="M36.13,29.81H30.06A2.79,2.79,0,0,1,27.28,27V21a2.79,2.79,0,0,1,2.78-2.78h6.07A2.79,2.79,0,0,1,38.91,21v6a2.79,2.79,0,0,1-2.78,2.81Zm-6.07-10.1A1.26,1.26,0,0,0,28.8,21v6a1.26,1.26,0,0,0,1.26,1.26h6.07A1.26,1.26,0,0,0,37.39,27V21a1.26,1.26,0,0,0-1.26-1.26Z" fill="#2c3d60"/>
          <rect id="Rectángulo_408237" data-name="Rectángulo 408237" width="10.11" height="10.11" rx="2" transform="translate(9.85 18.95)" fill="#5aa874"/>
          <rect id="Rectángulo_408238" data-name="Rectángulo 408238" width="7.07" height="10.11" rx="2" transform="translate(9.85 18.95)" fill="#9fe2a0"/>
          <path id="Trazado_986537" data-name="Trazado 986537" d="M16.93,29.05H11.87l1.01-10.1h5.06Z" fill="#77d982"/>
          <path id="Trazado_986538" data-name="Trazado 986538" d="M17.94,29.81H11.87A2.79,2.79,0,0,1,9.09,27V21a2.79,2.79,0,0,1,2.78-2.78h6.07A2.79,2.79,0,0,1,20.72,21v6a2.79,2.79,0,0,1-2.78,2.81Zm-6.07-10.1A1.26,1.26,0,0,0,10.61,21v6a1.26,1.26,0,0,0,1.26,1.26h6.07A1.26,1.26,0,0,0,19.2,27V21a1.26,1.26,0,0,0-1.26-1.26Z" fill="#2c3d60"/>
          <rect id="Rectángulo_408239" data-name="Rectángulo 408239" width="10.11" height="10.11" rx="2" transform="translate(0.76 37.14)" fill="#8396ff"/>
          <rect id="Rectángulo_408240" data-name="Rectángulo 408240" width="7.07" height="10.11" rx="2" transform="translate(0.76 37.14)" fill="#b5daff"/>
          <path id="Trazado_986539" data-name="Trazado 986539" d="M7.83,47.24H2.78l1.01-10.1H8.84Z" fill="#8eb6ff"/>
          <path id="Trazado_986540" data-name="Trazado 986540" d="M8.84,48H2.78A2.79,2.79,0,0,1,0,45.22V39.16a2.79,2.79,0,0,1,2.78-2.78H8.84a2.79,2.79,0,0,1,2.78,2.78v6.06A2.79,2.79,0,0,1,8.84,48ZM2.78,37.89a1.26,1.26,0,0,0-1.26,1.27v6.06a1.25,1.25,0,0,0,1.26,1.26H8.84a1.26,1.26,0,0,0,1.27-1.26V39.16a1.27,1.27,0,0,0-1.27-1.27Z" fill="#2c3d60"/>
          <rect id="Rectángulo_408241" data-name="Rectángulo 408241" width="10.11" height="10.11" rx="2" transform="translate(18.95 37.14)" fill="#e78251"/>
          <rect id="Rectángulo_408242" data-name="Rectángulo 408242" width="7.07" height="10.11" rx="2" transform="translate(18.95 37.14)" fill="#f4c08e"/>
          <path id="Trazado_986541" data-name="Trazado 986541" d="M26.02,47.24H20.97l1.01-10.1h5.05Z" fill="#feb166"/>
          <path id="Trazado_986542" data-name="Trazado 986542" d="M27,48H21a2.79,2.79,0,0,1-2.78-2.78V39.16A2.79,2.79,0,0,1,21,36.38h6a2.79,2.79,0,0,1,2.78,2.78v6.06A2.79,2.79,0,0,1,27,48ZM21,37.89a1.26,1.26,0,0,0-1.26,1.27v6.06A1.25,1.25,0,0,0,21,46.48h6a1.25,1.25,0,0,0,1.26-1.26V39.16A1.26,1.26,0,0,0,27,37.89Z" fill="#2c3d60"/>
          <rect id="Rectángulo_408243" data-name="Rectángulo 408243" width="10.11" height="10.11" rx="2" transform="translate(37.14 37.14)" fill="#5aa874"/>
          <rect id="Rectángulo_408244" data-name="Rectángulo 408244" width="7.07" height="10.11" rx="2" transform="translate(37.14 37.14)" fill="#9fe2a0"/>
          <path id="Trazado_986543" data-name="Trazado 986543" d="M44.21,47.24H39.16l1.01-10.1h5.05Z" fill="#77d982"/>
          <path id="Trazado_986544" data-name="Trazado 986544" d="M45.22,48H39.16a2.79,2.79,0,0,1-2.78-2.78V39.16a2.79,2.79,0,0,1,2.78-2.78h6.06A2.79,2.79,0,0,1,48,39.16v6.06A2.79,2.79,0,0,1,45.22,48ZM39.16,37.89a1.27,1.27,0,0,0-1.27,1.27v6.06a1.26,1.26,0,0,0,1.27,1.26h6.06a1.25,1.25,0,0,0,1.26-1.26V39.16a1.26,1.26,0,0,0-1.26-1.27Z" fill="#2c3d60"/>
        </g>
      </g>
    </g>
  </g>
</svg>
