<svg xmlns="http://www.w3.org/2000/svg" xmlns:xlink="http://www.w3.org/1999/xlink" width="113" height="113" viewBox="0 0 113 113">
  <defs>
    <filter id="Trazado_982547" x="0" y="0" width="113" height="113" filterUnits="userSpaceOnUse">
      <feOffset dy="3" input="SourceAlpha"/>
      <feGaussianBlur stdDeviation="3" result="blur"/>
      <feFlood flood-opacity="0.161"/>
      <feComposite operator="in" in2="blur"/>
      <feComposite in="SourceGraphic"/>
    </filter>
  </defs>
  <g id="Grupo_1148591" data-name="Grupo 1148591" transform="translate(-1164 -3704.178)">
    <g id="Grupo_1147088" data-name="Grupo 1147088" transform="translate(1173 3710.178)">
      <g transform="matrix(1, 0, 0, 1, -9, -6)" filter="url(#Trazado_982547)">
        <g id="Trazado_982547-2" data-name="Trazado 982547" transform="translate(9 6)" fill="#fdeffe">
          <path d="M 47.5 93.5 C 41.28937149047852 93.5 35.26533508300781 92.28397369384766 29.59518623352051 89.88570404052734 C 24.11771965026855 87.56893157958984 19.19813346862793 84.25196075439453 14.97309303283691 80.02691650390625 C 10.74804019927979 75.80186462402344 7.431066513061523 70.88229370117188 5.114293098449707 65.40481567382812 C 2.716026782989502 59.73468017578125 1.5 53.71062850952148 1.5 47.5 C 1.5 41.28937149047852 2.716026782989502 35.26533508300781 5.114293098449707 29.59518623352051 C 7.431066513061523 24.11771965026855 10.74804019927979 19.19813346862793 14.97309303283691 14.97309303283691 C 19.19813346862793 10.74804019927979 24.11771965026855 7.431066513061523 29.59518623352051 5.114293098449707 C 35.26533508300781 2.716026782989502 41.28937149047852 1.5 47.5 1.5 C 53.71062850952148 1.5 59.73468017578125 2.716026782989502 65.40481567382812 5.114293098449707 C 70.88229370117188 7.431066513061523 75.80186462402344 10.74804019927979 80.02691650390625 14.97309303283691 C 84.25196075439453 19.19813346862793 87.56893157958984 24.11771965026855 89.88570404052734 29.59518623352051 C 92.28397369384766 35.26533508300781 93.5 41.28937149047852 93.5 47.5 C 93.5 53.71062850952148 92.28397369384766 59.73468017578125 89.88570404052734 65.40481567382812 C 87.56893157958984 70.88229370117188 84.25196075439453 75.80186462402344 80.02691650390625 80.02691650390625 C 75.80186462402344 84.25196075439453 70.88229370117188 87.56893157958984 65.40481567382812 89.88570404052734 C 59.73468017578125 92.28397369384766 53.71062850952148 93.5 47.5 93.5 Z" stroke="none"/>
          <path d="M 47.5 3 C 41.49121475219727 3 35.66376876831055 4.176155090332031 30.17950439453125 6.495796203613281 C 24.88084411621094 8.736953735351562 20.12152099609375 11.94598388671875 16.03375244140625 16.03375244140625 C 11.94598388671875 20.12152099609375 8.736953735351562 24.88084411621094 6.495796203613281 30.17950439453125 C 4.176155090332031 35.66376876831055 3 41.49121475219727 3 47.5 C 3 53.50878524780273 4.176155090332031 59.33623123168945 6.495796203613281 64.82049560546875 C 8.736953735351562 70.11915588378906 11.94598388671875 74.87847900390625 16.03375244140625 78.96624755859375 C 20.12152099609375 83.05401611328125 24.88084411621094 86.26304626464844 30.17950439453125 88.50419616699219 C 35.66376876831055 90.82384490966797 41.49121475219727 92 47.5 92 C 53.50878524780273 92 59.33623123168945 90.82384490966797 64.82049560546875 88.50419616699219 C 70.11915588378906 86.26304626464844 74.87847900390625 83.05401611328125 78.96624755859375 78.96624755859375 C 83.05401611328125 74.87847900390625 86.26304626464844 70.11915588378906 88.50419616699219 64.82049560546875 C 90.82384490966797 59.33623123168945 92 53.50878524780273 92 47.5 C 92 41.49121475219727 90.82384490966797 35.66376876831055 88.50419616699219 30.17950439453125 C 86.26304626464844 24.88084411621094 83.05401611328125 20.12152099609375 78.96624755859375 16.03375244140625 C 74.87847900390625 11.94598388671875 70.11915588378906 8.736953735351562 64.82049560546875 6.495796203613281 C 59.33623123168945 4.176155090332031 53.50878524780273 3 47.5 3 M 47.5 0 C 73.7335205078125 0 95 21.2664794921875 95 47.5 C 95 73.7335205078125 73.7335205078125 95 47.5 95 C 21.2664794921875 95 0 73.7335205078125 0 47.5 C 0 21.2664794921875 21.2664794921875 0 47.5 0 Z" stroke="none" fill="#ee70f7"/>
        </g>
      </g>
      <g id="Layer_2" data-name="Layer 2" transform="translate(19.648 19.371)">
        <g id="_1" data-name="1" transform="translate(0 0)">
          <path id="Trazado_986545" data-name="Trazado 986545" d="M39.909,29.073a13.043,13.043,0,0,0,0-4.579L45.1,21.583l-1.7-4.121-5.729,1.62a13.113,13.113,0,0,0-3.252-3.24l1.62-5.741L31.925,8.34l-2.853,5.2a13.043,13.043,0,0,0-4.579,0l-2.97-5.2-4.121,1.7,1.62,5.729a13.113,13.113,0,0,0-3.24,3.252L10.042,17.4l-1.7,4.121,5.2,2.911a13.043,13.043,0,0,0,0,4.579l-5.2,2.911,1.7,4.121,5.729-1.62a13.113,13.113,0,0,0,3.252,3.24L17.4,43.407l4.121,1.7,2.911-5.2a13.043,13.043,0,0,0,4.579,0L31.925,45.1l4.121-1.7-1.62-5.729a13.113,13.113,0,0,0,3.24-3.252l5.741,1.62,1.7-4.121Z" transform="translate(1.451 1.451)" fill="#8eb6ff"/>
          <path id="Trazado_986546" data-name="Trazado 986546" d="M29.073,13.541a13.043,13.043,0,0,0-4.579,0l-2.97-5.2-4.121,1.7,1.62,5.729a13.113,13.113,0,0,0-3.24,3.252L10.042,17.4l-1.7,4.121,5.2,2.911a13.043,13.043,0,0,0,0,4.579l-5.2,2.911,1.7,4.121,5.729-1.62a13.113,13.113,0,0,0,3.252,3.24S9.232,20.855,29.073,13.541Z" transform="translate(1.451 1.451)" fill="#b5daff"/>
          <path id="Trazado_986547" data-name="Trazado 986547" d="M37.525,27.961a13.043,13.043,0,0,0,0-4.579l5.189-2.911-1.7-4.121-5.729,1.62a13.113,13.113,0,0,0-3.252-3.24c8.664,18.631-9.991,24.126-9.991,24.126a13.043,13.043,0,0,0,4.579,0l2.911,5.189,4.121-1.7-1.62-5.729a13.114,13.114,0,0,0,3.24-3.252l5.741,1.62,1.7-4.121Z" transform="translate(3.835 2.563)" fill="#8396ff"/>
          <path id="Trazado_986548" data-name="Trazado 986548" d="M32.057,46.134a.881.881,0,0,1-.775-.458l-2.606-4.7a13.489,13.489,0,0,1-3.639,0l-2.606,4.7a.869.869,0,0,1-1.115.387l-4.121-1.7a.88.88,0,0,1-.517-1.068l1.456-5.142a14.4,14.4,0,0,1-2.583-2.559l-5.13,1.444a.88.88,0,0,1-1.068-.517L7.649,32.4a.88.88,0,0,1,.423-1.115l4.7-2.606a13.489,13.489,0,0,1,0-3.639l-4.7-2.606a.88.88,0,0,1-.387-1.115l1.7-4.121a.88.88,0,0,1,1.068-.517L15.6,18.135a14.4,14.4,0,0,1,2.559-2.583l-1.479-5.13a.88.88,0,0,1,.517-1.068l4.121-1.7a.869.869,0,0,1,1.115.387l2.606,4.7a13.489,13.489,0,0,1,3.639,0l2.606-4.7A.869.869,0,0,1,32.4,7.651l4.121,1.7a.88.88,0,0,1,.517,1.068l-1.456,5.142a14.4,14.4,0,0,1,2.583,2.559l5.13-1.444a.881.881,0,0,1,1.068.517l1.7,4.121a.88.88,0,0,1-.387,1.115l-4.7,2.606a13.489,13.489,0,0,1,0,3.639l4.7,2.606a.88.88,0,0,1,.387,1.115l-1.7,4.121a.88.88,0,0,1-1.068.517L38.15,35.58a14.4,14.4,0,0,1-2.559,2.583l1.444,5.13a.881.881,0,0,1-.517,1.068l-4.121,1.7a.881.881,0,0,1-.34.07ZM18.638,43.023,21.3,44.115l2.524-4.508a.869.869,0,0,1,.927-.434,12.433,12.433,0,0,0,4.273,0,.9.9,0,0,1,.939.446l2.512,4.5,2.595-1.092-1.409-4.978a.88.88,0,0,1,.352-.963,12.526,12.526,0,0,0,3.017-3.029.892.892,0,0,1,.974-.352l5.013,1.374,1.092-2.665-4.508-2.524a.869.869,0,0,1-.434-.927,12.433,12.433,0,0,0,0-4.273.88.88,0,0,1,.446-.939l4.5-2.512-1.092-2.595-4.978,1.409a.88.88,0,0,1-.963-.352,12.527,12.527,0,0,0-3.029-3.017A.892.892,0,0,1,33.7,15.7l1.374-5.013L32.444,9.6,29.92,14.108a.88.88,0,0,1-.927.434,12.433,12.433,0,0,0-4.273,0,.9.9,0,0,1-.939-.446L21.268,9.6l-2.63,1.092,1.409,4.978a.88.88,0,0,1-.352.963,12.526,12.526,0,0,0-3.017,3.029.892.892,0,0,1-.974.352L10.69,18.639,9.6,21.269l4.508,2.524a.869.869,0,0,1,.434.927,12.433,12.433,0,0,0,0,4.273.88.88,0,0,1-.446.939L9.6,32.446l1.092,2.63,4.978-1.409a.869.869,0,0,1,.963.352,12.526,12.526,0,0,0,3.029,3.017.892.892,0,0,1,.352.974Z" transform="translate(1.32 1.318)" fill="#2c3d60"/>
          <circle id="Elipse_11602" data-name="Elipse 11602" cx="6.527" cy="6.527" r="6.527" transform="translate(21.648 21.648)" fill="#fff"/>
          <path id="Trazado_986549" data-name="Trazado 986549" d="M25.1,32.519a7.42,7.42,0,1,1,7.42-7.42,7.42,7.42,0,0,1-7.42,7.42Zm0-13.055A5.635,5.635,0,1,0,30.735,25.1,5.635,5.635,0,0,0,25.1,19.464Z" transform="translate(3.076 3.076)" fill="#2c3d60"/>
          <path id="Trazado_986550" data-name="Trazado 986550" d="M20.334,55.671a.728.728,0,0,1-.27,0A29.585,29.585,0,0,1,0,28.176,28.176,28.176,0,0,1,28.176,0a.892.892,0,0,1,0,1.784A26.415,26.415,0,0,0,1.784,28.176,27.753,27.753,0,0,0,20.568,53.933a.9.9,0,0,1,.564,1.174.88.88,0,0,1-.8.564Z" transform="translate(0 0)" fill="#2c3d60"/>
          <path id="Trazado_986551" data-name="Trazado 986551" d="M19.656,49.494H8.972a.892.892,0,1,1,0-1.784h8.946L13,40.818a.892.892,0,0,1,.2-1.244.9.9,0,0,1,1.244.211l5.929,8.3a.88.88,0,0,1,.07.927A.892.892,0,0,1,19.656,49.494Z" transform="translate(1.406 6.858)" fill="#2c3d60"/>
          <path id="Trazado_986552" data-name="Trazado 986552" d="M24.132,56.257a.892.892,0,1,1,0-1.784A26.415,26.415,0,0,0,50.524,28.082,27.753,27.753,0,0,0,31.74,2.324a.9.9,0,0,1-.564-1.174A.88.88,0,0,1,32.291.587,29.585,29.585,0,0,1,52.308,28.082,28.176,28.176,0,0,1,24.132,56.257Z" transform="translate(4.044 0.094)" fill="#2c3d60"/>
          <path id="Trazado_986553" data-name="Trazado 986553" d="M36.132,10.085a.88.88,0,0,1-.728-.376l-5.929-8.3A.881.881,0,0,1,29.4.481.892.892,0,0,1,30.191,0H40.875a.892.892,0,0,1,0,1.784H31.929l4.919,6.891a.892.892,0,0,1-.2,1.244.963.963,0,0,1-.517.164Z" transform="translate(5.099 0)" fill="#2c3d60"/>
        </g>
      </g>
    </g>
  </g>
</svg>
