<svg xmlns="http://www.w3.org/2000/svg" xmlns:xlink="http://www.w3.org/1999/xlink" width="108" height="108" viewBox="0 0 108 108">
  <defs>
    <filter id="Fondo" x="0" y="0" width="108" height="108" filterUnits="userSpaceOnUse">
      <feOffset dy="3" input="SourceAlpha"/>
      <feGaussianBlur stdDeviation="3" result="blur"/>
      <feFlood flood-opacity="0.161"/>
      <feComposite operator="in" in2="blur"/>
      <feComposite in="SourceGraphic"/>
    </filter>
  </defs>
  <g id="Icono" transform="translate(9 -689)">
    <g transform="matrix(1, 0, 0, 1, -9, 689)" filter="url(#Fondo)">
      <g id="Fondo-2" data-name="Fondo" transform="translate(9 6)" fill="#fee1ca">
        <path d="M 45 88.5 C 39.12687683105469 88.5 33.43022537231445 87.35007476806641 28.06830024719238 85.08217620849609 C 22.88852500915527 82.89131164550781 18.23629951477051 79.75458526611328 14.2408504486084 75.75914764404297 C 10.24541282653809 71.76370239257812 7.108687400817871 67.11147308349609 4.917825222015381 61.93170166015625 C 2.649924993515015 56.56977462768555 1.5 50.87312316894531 1.5 45 C 1.5 39.12687683105469 2.649924993515015 33.43022537231445 4.917825222015381 28.06830024719238 C 7.108687400817871 22.88852500915527 10.24541282653809 18.23629951477051 14.2408504486084 14.2408504486084 C 18.23629951477051 10.24541282653809 22.88852500915527 7.108687400817871 28.06830024719238 4.917825222015381 C 33.43022537231445 2.649924993515015 39.12687683105469 1.5 45 1.5 C 50.87312316894531 1.5 56.56977462768555 2.649924993515015 61.93170166015625 4.917825222015381 C 67.11147308349609 7.108687400817871 71.76370239257812 10.24541282653809 75.75914764404297 14.2408504486084 C 79.75458526611328 18.23629951477051 82.89131164550781 22.88852500915527 85.08217620849609 28.06830024719238 C 87.35007476806641 33.43022537231445 88.5 39.12687683105469 88.5 45 C 88.5 50.87312316894531 87.35007476806641 56.56977462768555 85.08217620849609 61.93170166015625 C 82.89131164550781 67.11147308349609 79.75458526611328 71.76370239257812 75.75914764404297 75.75914764404297 C 71.76370239257812 79.75458526611328 67.11147308349609 82.89131164550781 61.93170166015625 85.08217620849609 C 56.56977462768555 87.35007476806641 50.87312316894531 88.5 45 88.5 Z" stroke="none"/>
        <path d="M 45 3 C 39.32871246337891 3 33.82865524291992 4.110054016113281 28.65262985229492 6.299339294433594 C 23.65165710449219 8.414573669433594 19.15968322753906 11.44334411621094 15.301513671875 15.301513671875 C 11.44334411621094 19.15968322753906 8.414573669433594 23.65165710449219 6.299339294433594 28.65262985229492 C 4.110054016113281 33.82865524291992 3 39.32871246337891 3 45 C 3 50.67128753662109 4.110054016113281 56.17134475708008 6.299339294433594 61.34737396240234 C 8.414573669433594 66.34834289550781 11.44334411621094 70.84031677246094 15.301513671875 74.698486328125 C 19.15968322753906 78.55665588378906 23.65165710449219 81.58542633056641 28.65262985229492 83.70066070556641 C 33.82865524291992 85.88994598388672 39.32871246337891 87 45 87 C 50.67128753662109 87 56.17134475708008 85.88994598388672 61.34737396240234 83.70066070556641 C 66.34834289550781 81.58542633056641 70.84031677246094 78.55665588378906 74.698486328125 74.698486328125 C 78.55665588378906 70.84031677246094 81.58542633056641 66.34834289550781 83.70066070556641 61.34737396240234 C 85.88994598388672 56.17134475708008 87 50.67128753662109 87 45 C 87 39.32871246337891 85.88994598388672 33.82865524291992 83.70066070556641 28.65262985229492 C 81.58542633056641 23.65165710449219 78.55665588378906 19.15968322753906 74.698486328125 15.301513671875 C 70.84031677246094 11.44334411621094 66.34834289550781 8.414573669433594 61.34737396240234 6.299339294433594 C 56.17134475708008 4.110054016113281 50.67128753662109 3 45 3 M 45 0 C 69.85281372070312 0 90 20.14718627929688 90 45 C 90 69.85281372070312 69.85281372070312 90 45 90 C 20.14718627929688 90 0 69.85281372070312 0 45 C 0 20.14718627929688 20.14718627929688 0 45 0 Z" stroke="none" fill="#8a552c"/>
      </g>
    </g>
    <g id="_1" data-name="1" transform="translate(19.508 714)">
      <path id="Trazado_986451" data-name="Trazado 986451" d="M23.111,48.155H11.948a.838.838,0,1,1,0-1.675H23.111a.838.838,0,0,1,0,1.675Z" transform="translate(1.168 4.764)" fill="#2c3d60"/>
      <path id="Trazado_986452" data-name="Trazado 986452" d="M26.727,44.155H8.918a.838.838,0,1,1,0-1.675H26.727a.838.838,0,0,1,0,1.675Z" transform="translate(0.859 4.356)" fill="#2c3d60"/>
      <path id="Trazado_986453" data-name="Trazado 986453" d="M26.727,40.075H8.918a.838.838,0,1,1,0-1.675H26.727a.838.838,0,0,1,0,1.675Z" transform="translate(0.859 3.939)" fill="#2c3d60"/>
      <path id="Trazado_986454" data-name="Trazado 986454" d="M17.721.782a17.82,17.82,0,0,0-10.4,31.607,3.306,3.306,0,0,1,1.234,2.579V36.29a2.27,2.27,0,0,0,2.2,2.391H26.372a2.2,2.2,0,0,0,2.2-2.2v-1.51A3.306,3.306,0,0,1,29.8,32.389,17.809,17.809,0,0,0,17.721.782Z" transform="translate(0.112 0.098)" fill="#feb166"/>
      <path id="Trazado_986455" data-name="Trazado 986455" d="M9.378,30.08A17.8,17.8,0,0,1,4.1,17.043,18,18,0,0,1,14.756,1.14,17.809,17.809,0,0,0,7.328,32.35a3.306,3.306,0,0,1,1.223,2.579v1.422a2.2,2.2,0,0,0,2.2,2.2h1.1v-2.7a8.144,8.144,0,0,0-2.48-5.775Z" transform="translate(0.112 0.137)" fill="#f4c08e"/>
      <path id="Trazado_986456" data-name="Trazado 986456" d="M20.3,1.12a17.8,17.8,0,0,1,4.629,26.317,16.972,16.972,0,0,0-3.857,10.58v.573h3.306a2.2,2.2,0,0,0,2.2-2.2V34.931a3.306,3.306,0,0,1,1.223-2.579A17.8,17.8,0,0,0,20.3,1.12Z" transform="translate(2.106 0.135)" fill="#e78251"/>
      <path id="Trazado_986457" data-name="Trazado 986457" d="M26.453,39.533H10.858a3.119,3.119,0,0,1-3.064-3.24V35.036a2.469,2.469,0,0,0-.915-1.918A18.647,18.647,0,0,1,17.757,0h0A18.647,18.647,0,0,1,30.431,33.064a2.469,2.469,0,0,0-.915,1.929v1.422a3.064,3.064,0,0,1-3.064,3.119ZM17.834,1.688A17.225,17.225,0,0,0,1.678,18.3,16.9,16.9,0,0,0,7.927,31.818,4.133,4.133,0,0,1,9.47,35.036v1.256a1.444,1.444,0,0,0,1.389,1.576H26.453a1.389,1.389,0,0,0,1.389-1.4V35.047a4.122,4.122,0,0,1,1.543-3.218A16.994,16.994,0,0,0,17.834,1.688Zm0-.827Z" transform="translate(0.031 0.019)" fill="#2c3d60"/>
      <path id="Trazado_986458" data-name="Trazado 986458" d="M19.894,37.468H15.486a.827.827,0,0,1-.8-.606L10.273,21.279a.838.838,0,0,1,.276-.871.827.827,0,0,1,.9-.11l6.315,3.152,6.3-3.152a.838.838,0,0,1,1.179.981L20.842,36.862A.838.838,0,0,1,19.894,37.468ZM16.07,35.8h3.2l3.758-13.159-4.981,2.491a.893.893,0,0,1-.749,0l-4.981-2.491Z" transform="translate(1.08 2.083)" fill="#2c3d60"/>
      <circle id="Elipse_11597" data-name="Elipse 11597" cx="14.481" cy="14.481" r="14.481" transform="translate(19.794 0.847)" fill="#dfebf7"/>
      <path id="Trazado_986459" data-name="Trazado 986459" d="M29.59.859a14.469,14.469,0,0,1,0,28.753,14.47,14.47,0,1,0,0-28.753Z" transform="translate(3.054 0.098)" fill="#bac4d3"/>
      <path id="Trazado_986460" data-name="Trazado 986460" d="M34.052,29.611a14.469,14.469,0,0,1,0-28.753,14.47,14.47,0,1,0,0,28.753Z" transform="translate(1.865 0.098)" fill="#fff"/>
      <path id="Trazado_986461" data-name="Trazado 986461" d="M32.487,30.626A15.319,15.319,0,1,1,46.63,21.172a15.319,15.319,0,0,1-14.143,9.454Zm0-28.951a13.638,13.638,0,1,0,9.654,3.989A13.643,13.643,0,0,0,32.487,1.675Z" transform="translate(1.788 0.02)" fill="#2c3d60"/>
      <path id="Trazado_986462" data-name="Trazado 986462" d="M44.71,4.7l-10.6,10.6L28.686,9.866a1.367,1.367,0,0,0-1.929,0l-2.6,2.612a1.356,1.356,0,0,0,0,1.918l8.034,8.034a2.722,2.722,0,0,0,3.846,0L49.262,9.2a1.367,1.367,0,0,0,0-1.929L46.639,4.7a1.356,1.356,0,0,0-1.929,0Z" transform="translate(2.459 0.459)" fill="#8396ff"/>
      <path id="Trazado_986463" data-name="Trazado 986463" d="M32.51,18.231a2.27,2.27,0,0,0,3.207,0L47.939,6l-1.3-1.3a1.356,1.356,0,0,0-1.929,0l-10.6,10.6L28.686,9.866a1.367,1.367,0,0,0-1.929,0l-2.6,2.612a1.356,1.356,0,0,0,0,1.918l1.3,1.311,1.873-1.818a.573.573,0,0,1,.8,0Z" transform="translate(2.459 0.459)" fill="#8eb6ff"/>
      <path id="Trazado_986464" data-name="Trazado 986464" d="M34.186,24.137A3.549,3.549,0,0,1,31.673,23.1l-8.034-8.034a2.2,2.2,0,0,1,0-3.108l2.667-2.6a2.2,2.2,0,0,1,3.1,0l4.838,4.827L44.259,4.179a2.2,2.2,0,0,1,3.1,0l2.612,2.612a2.2,2.2,0,0,1,0,3.1L36.743,23.112A3.527,3.527,0,0,1,34.186,24.137ZM27.805,10.383a.529.529,0,0,0-.375.154l-2.612,2.6a.562.562,0,0,0,0,.749l8.034,8.034a1.907,1.907,0,0,0,2.667,0L48.744,8.7a.529.529,0,0,0,0-.738l-2.6-2.6a.529.529,0,0,0-.738,0L34.8,15.96a.827.827,0,0,1-1.179,0l-5.455-5.422a.518.518,0,0,0-.364-.154Z" transform="translate(2.381 0.382)" fill="#2c3d60"/>
      <path id="Trazado_986465" data-name="Trazado 986465" d="M34.188,42.206a.838.838,0,0,1-.838-.838v-1.1a.838.838,0,1,1,1.664,0v1.1a.838.838,0,0,1-.827.838Z" transform="translate(3.437 4.035)" fill="#2c3d60"/>
      <path id="Trazado_986466" data-name="Trazado 986466" d="M34.188,47.266a.838.838,0,0,1-.838-.838v-1.1a.838.838,0,1,1,1.664,0v1.1a.838.838,0,0,1-.827.838Z" transform="translate(3.437 4.551)" fill="#2c3d60"/>
      <path id="Trazado_986467" data-name="Trazado 986467" d="M32.27,44.155h-1.1a.838.838,0,1,1,0-1.675h1.1a.838.838,0,0,1,0,1.675Z" transform="translate(3.13 4.356)" fill="#2c3d60"/>
      <path id="Trazado_986468" data-name="Trazado 986468" d="M37.32,44.155h-1.1a.838.838,0,0,1,0-1.675h1.1a.838.838,0,1,1,0,1.675Z" transform="translate(3.645 4.356)" fill="#2c3d60"/>
      <path id="Trazado_986469" data-name="Trazado 986469" d="M41.258,32.087a.838.838,0,0,1-.838-.838v-1.1a.838.838,0,0,1,1.675,0v1.1A.838.838,0,0,1,41.258,32.087Z" transform="translate(4.159 3.012)" fill="#2c3d60"/>
      <path id="Trazado_986470" data-name="Trazado 986470" d="M41.258,37.136a.838.838,0,0,1-.838-.827v-1.1a.838.838,0,0,1,1.675,0v1.1A.838.838,0,0,1,41.258,37.136Z" transform="translate(4.159 3.528)" fill="#2c3d60"/>
      <path id="Trazado_986471" data-name="Trazado 986471" d="M39.349,34h-1.1a.838.838,0,1,1,0-1.664h1.1a.838.838,0,1,1,0,1.664Z" transform="translate(3.842 3.32)" fill="#2c3d60"/>
      <path id="Trazado_986472" data-name="Trazado 986472" d="M44.4,34H43.3a.838.838,0,1,1,0-1.664h1.1A.838.838,0,1,1,44.4,34Z" transform="translate(4.358 3.32)" fill="#2c3d60"/>
    </g>
  </g>
</svg>
