<svg xmlns="http://www.w3.org/2000/svg" xmlns:xlink="http://www.w3.org/1999/xlink" width="108" height="108" viewBox="0 0 108 108">
  <defs>
    <filter id="Trazado_982547" x="0" y="0" width="108" height="108" filterUnits="userSpaceOnUse">
      <feOffset dy="3" input="SourceAlpha"/>
      <feGaussianBlur stdDeviation="3" result="blur"/>
      <feFlood flood-opacity="0.161"/>
      <feComposite operator="in" in2="blur"/>
      <feComposite in="SourceGraphic"/>
    </filter>
  </defs>
  <g id="Grupo_1148527" data-name="Grupo 1148527" transform="translate(-201 -2781)">
    <g id="Grupo_1146954" data-name="Grupo 1146954" transform="translate(-415 -1202)">
      <g transform="matrix(1, 0, 0, 1, 616, 3983)" filter="url(#Trazado_982547)">
        <g id="Trazado_982547-2" data-name="Trazado 982547" transform="translate(9 6)" fill="#fdeffe">
          <path d="M 45 88.5 C 39.12687683105469 88.5 33.43022537231445 87.35007476806641 28.06830024719238 85.08217620849609 C 22.88852500915527 82.89131164550781 18.23629951477051 79.75458526611328 14.2408504486084 75.75914764404297 C 10.24541282653809 71.76370239257812 7.108687400817871 67.11147308349609 4.917825222015381 61.93170166015625 C 2.649924993515015 56.56977462768555 1.5 50.87312316894531 1.5 45 C 1.5 39.12687683105469 2.649924993515015 33.43022537231445 4.917825222015381 28.06830024719238 C 7.108687400817871 22.88852500915527 10.24541282653809 18.23629951477051 14.2408504486084 14.2408504486084 C 18.23629951477051 10.24541282653809 22.88852500915527 7.108687400817871 28.06830024719238 4.917825222015381 C 33.43022537231445 2.649924993515015 39.12687683105469 1.5 45 1.5 C 50.87312316894531 1.5 56.56977462768555 2.649924993515015 61.93170166015625 4.917825222015381 C 67.11147308349609 7.108687400817871 71.76370239257812 10.24541282653809 75.75914764404297 14.2408504486084 C 79.75458526611328 18.23629951477051 82.89131164550781 22.88852500915527 85.08217620849609 28.06830024719238 C 87.35007476806641 33.43022537231445 88.5 39.12687683105469 88.5 45 C 88.5 50.87312316894531 87.35007476806641 56.56977462768555 85.08217620849609 61.93170166015625 C 82.89131164550781 67.11147308349609 79.75458526611328 71.76370239257812 75.75914764404297 75.75914764404297 C 71.76370239257812 79.75458526611328 67.11147308349609 82.89131164550781 61.93170166015625 85.08217620849609 C 56.56977462768555 87.35007476806641 50.87312316894531 88.5 45 88.5 Z" stroke="none"/>
          <path d="M 45 3 C 39.32871246337891 3 33.82865524291992 4.110054016113281 28.65262985229492 6.299339294433594 C 23.65165710449219 8.414573669433594 19.15968322753906 11.44334411621094 15.301513671875 15.301513671875 C 11.44334411621094 19.15968322753906 8.414573669433594 23.65165710449219 6.299339294433594 28.65262985229492 C 4.110054016113281 33.82865524291992 3 39.32871246337891 3 45 C 3 50.67128753662109 4.110054016113281 56.17134475708008 6.299339294433594 61.34737396240234 C 8.414573669433594 66.34834289550781 11.44334411621094 70.84031677246094 15.301513671875 74.698486328125 C 19.15968322753906 78.55665588378906 23.65165710449219 81.58542633056641 28.65262985229492 83.70066070556641 C 33.82865524291992 85.88994598388672 39.32871246337891 87 45 87 C 50.67128753662109 87 56.17134475708008 85.88994598388672 61.34737396240234 83.70066070556641 C 66.34834289550781 81.58542633056641 70.84031677246094 78.55665588378906 74.698486328125 74.698486328125 C 78.55665588378906 70.84031677246094 81.58542633056641 66.34834289550781 83.70066070556641 61.34737396240234 C 85.88994598388672 56.17134475708008 87 50.67128753662109 87 45 C 87 39.32871246337891 85.88994598388672 33.82865524291992 83.70066070556641 28.65262985229492 C 81.58542633056641 23.65165710449219 78.55665588378906 19.15968322753906 74.698486328125 15.301513671875 C 70.84031677246094 11.44334411621094 66.34834289550781 8.414573669433594 61.34737396240234 6.299339294433594 C 56.17134475708008 4.110054016113281 50.67128753662109 3 45 3 M 45 0 C 69.85281372070312 0 90 20.14718627929688 90 45 C 90 69.85281372070312 69.85281372070312 90 45 90 C 20.14718627929688 90 0 69.85281372070312 0 45 C 0 20.14718627929688 20.14718627929688 0 45 0 Z" stroke="none" fill="#ee70f7"/>
        </g>
      </g>
      <g id="_002-speedometer" data-name="002-speedometer" transform="translate(642.5 4012.095)">
        <g id="Grupo_1148851" data-name="Grupo 1148851" transform="translate(1.017 1.517)">
          <path id="Trazado_986415" data-name="Trazado 986415" d="M12.26,87.106H57.769a2.266,2.266,0,0,0,2.26-2.26V50.5H20.168a2.04,2.04,0,0,1-2.034,2.034H10V84.847A2.266,2.266,0,0,0,12.26,87.106Zm0,0" transform="translate(-10 -46.433)" fill="#f2f2f2" fill-rule="evenodd"/>
          <path id="Trazado_986416" data-name="Trazado 986416" d="M10,16.6h8.135a2.04,2.04,0,0,0,2.034-2.034h39.86V12.76a2.266,2.266,0,0,0-2.26-2.26H12.26A2.266,2.266,0,0,0,10,12.76Zm0,0" transform="translate(-10 -10.5)" fill="#ffba4a" fill-rule="evenodd"/>
          <path id="Trazado_986417" data-name="Trazado 986417" d="M120.067,171.955a10.178,10.178,0,0,1,4.335-8.33l-2.333-3.332a14.289,14.289,0,0,0-5.583,15.344,2.031,2.031,0,0,0,3.924-1.049,9.576,9.576,0,0,1-.344-2.634Zm0,0" transform="translate(-105.221 -145.061)" fill="#73ca5b" fill-rule="evenodd"/>
          <path id="Trazado_986418" data-name="Trazado 986418" d="M178.028,140.886a10.173,10.173,0,0,1,11.666,0l2.333-3.332a14.24,14.24,0,0,0-16.331,0Zm0,0" transform="translate(-158.847 -122.323)" fill="#ffba4a" fill-rule="evenodd"/>
          <path id="Trazado_986419" data-name="Trazado 986419" d="M314.721,164.765a10.1,10.1,0,0,1,2.634,9.824,2.031,2.031,0,0,0,3.924,1.049,14.238,14.238,0,0,0-5.583-15.344l-2.333,3.332A10.181,10.181,0,0,1,314.721,164.765Zm0,0" transform="translate(-282.516 -145.061)" fill="#fd4848" fill-rule="evenodd"/>
          <path id="Trazado_986420" data-name="Trazado 986420" d="M240.067,257.014a2.034,2.034,0,1,1-2.034-2.034A2.034,2.034,0,0,1,240.067,257.014Zm0,0" transform="translate(-213.019 -230.121)" fill="#00c9af" fill-rule="evenodd"/>
        </g>
        <path id="Trazado_986421" data-name="Trazado 986421" d="M63.005,2.534h.027a1.017,1.017,0,1,0,0-2.034h-.027a1.017,1.017,0,1,0,0,2.034Zm0,0" transform="translate(-55.685)"/>
        <path id="Trazado_986422" data-name="Trazado 986422" d="M48.786.5H11.411a1.017,1.017,0,1,0,0,2.034H48.786a1.244,1.244,0,0,1,1.243,1.243v.791H11.185a1.017,1.017,0,0,0-1.017,1.017A1.018,1.018,0,0,1,9.152,6.6H2.034V3.777A1.244,1.244,0,0,1,3.277,2.534H4.4A1.017,1.017,0,1,0,4.4.5H3.277A3.28,3.28,0,0,0,0,3.777V39.931a3.28,3.28,0,0,0,3.277,3.277H38.723a1.017,1.017,0,0,0,0-2.034H3.277a1.244,1.244,0,0,1-1.243-1.243V8.635H9.152A3.056,3.056,0,0,0,12.028,6.6h38v33.33a1.244,1.244,0,0,1-1.243,1.243H45.735a1.017,1.017,0,0,0,0,2.034h3.051a3.28,3.28,0,0,0,3.277-3.277V3.777A3.28,3.28,0,0,0,48.786.5Zm0,0"/>
        <path id="Trazado_986423" data-name="Trazado 986423" d="M400.587,400.5h-.027a1.017,1.017,0,0,0,0,2.034h.027a1.017,1.017,0,0,0,0-2.034Zm0,0" transform="translate(-358.916 -359.326)"/>
        <path id="Trazado_986424" data-name="Trazado 986424" d="M130.094,142.6a3.048,3.048,0,1,0,5.889,1.574,15.925,15.925,0,0,0,.522-3.945,15.253,15.253,0,1,0-30.368,1.988,15.321,15.321,0,0,0,.385,1.957,3.048,3.048,0,0,0,5.889-1.574h0a9.169,9.169,0,0,1,2.371-8.842,9.079,9.079,0,0,1,5.454-2.623v6.218a3.051,3.051,0,1,0,2.034,0v-6.219a9.149,9.149,0,0,1,8.135,9.094,8.562,8.562,0,0,1-.31,2.371Zm-2.112-13.754-1.171,1.672a11.217,11.217,0,0,0-11.117,0l-1.171-1.672a13.251,13.251,0,0,1,13.459,0Zm-17.915,11.383a10.6,10.6,0,0,0,.379,2.9,1.014,1.014,0,1,1-1.96.523,13.881,13.881,0,0,1-.453-3.42,13.132,13.132,0,0,1,3.872-9.347q.459-.459.954-.867l1.171,1.672q-.354.3-.687.632A11.112,11.112,0,0,0,110.067,140.233Zm11.185,1.017a1.017,1.017,0,0,1,0-2.034h0a1.017,1.017,0,0,1,0,2.034Zm7.909-8.926q-.332-.332-.687-.632l1.171-1.672q.494.408.954.867a13.132,13.132,0,0,1,3.872,9.347,13.888,13.888,0,0,1-.453,3.42,1.014,1.014,0,0,1-1.96-.523,11.181,11.181,0,0,0,.29-1.434,11.3,11.3,0,0,0,.089-1.463A11.113,11.113,0,0,0,129.162,132.324Zm0,0" transform="translate(-95.221 -111.823)"/>
        <path id="Trazado_986425" data-name="Trazado 986425" d="M452.8,82.534a1.017,1.017,0,0,0,0-2.034h-.024a1.017,1.017,0,0,0,0,2.034Zm0,0" transform="translate(-405.825 -71.865)"/>
        <path id="Trazado_986426" data-name="Trazado 986426" d="M422.8,80.5h-.024a1.017,1.017,0,0,0,0,2.034h.024a1.017,1.017,0,0,0,0-2.034Zm0,0" transform="translate(-378.875 -71.865)"/>
        <path id="Trazado_986427" data-name="Trazado 986427" d="M392.8,82.534a1.017,1.017,0,0,0,0-2.034h-.024a1.017,1.017,0,0,0,0,2.034Zm0,0" transform="translate(-351.926 -71.865)"/>
      </g>
    </g>
  </g>
</svg>
