<svg xmlns="http://www.w3.org/2000/svg" xmlns:xlink="http://www.w3.org/1999/xlink" width="108" height="108" viewBox="0 0 108 108">
  <defs>
    <filter id="Trazado_982547" x="0" y="0" width="108" height="108" filterUnits="userSpaceOnUse">
      <feOffset dy="3" input="SourceAlpha"/>
      <feGaussianBlur stdDeviation="3" result="blur"/>
      <feFlood flood-opacity="0.161"/>
      <feComposite operator="in" in2="blur"/>
      <feComposite in="SourceGraphic"/>
    </filter>
  </defs>
  <g id="Grupo_1148853" data-name="Grupo 1148853" transform="translate(-1296 -2387)">
    <g id="Grupo_1148791" data-name="Grupo 1148791" transform="translate(1305 2393)">
      <g id="Grupo_1146701" data-name="Grupo 1146701">
        <g id="Grupo_1146627" data-name="Grupo 1146627">
          <g transform="matrix(1, 0, 0, 1, -9, -6)" filter="url(#Trazado_982547)">
            <g id="Trazado_982547-2" data-name="Trazado 982547" transform="translate(9 6)" fill="#eaf4fb">
              <path d="M 45 88.5 C 39.12687683105469 88.5 33.43022537231445 87.35007476806641 28.06830024719238 85.08217620849609 C 22.88852500915527 82.89131164550781 18.23629951477051 79.75458526611328 14.2408504486084 75.75914764404297 C 10.24541282653809 71.76370239257812 7.108687400817871 67.11147308349609 4.917825222015381 61.93170166015625 C 2.649924993515015 56.56977462768555 1.5 50.87312316894531 1.5 45 C 1.5 39.12687683105469 2.649924993515015 33.43022537231445 4.917825222015381 28.06830024719238 C 7.108687400817871 22.88852500915527 10.24541282653809 18.23629951477051 14.2408504486084 14.2408504486084 C 18.23629951477051 10.24541282653809 22.88852500915527 7.108687400817871 28.06830024719238 4.917825222015381 C 33.43022537231445 2.649924993515015 39.12687683105469 1.5 45 1.5 C 50.87312316894531 1.5 56.56977462768555 2.649924993515015 61.93170166015625 4.917825222015381 C 67.11147308349609 7.108687400817871 71.76370239257812 10.24541282653809 75.75914764404297 14.2408504486084 C 79.75458526611328 18.23629951477051 82.89131164550781 22.88852500915527 85.08217620849609 28.06830024719238 C 87.35007476806641 33.43022537231445 88.5 39.12687683105469 88.5 45 C 88.5 50.87312316894531 87.35007476806641 56.56977462768555 85.08217620849609 61.93170166015625 C 82.89131164550781 67.11147308349609 79.75458526611328 71.76370239257812 75.75914764404297 75.75914764404297 C 71.76370239257812 79.75458526611328 67.11147308349609 82.89131164550781 61.93170166015625 85.08217620849609 C 56.56977462768555 87.35007476806641 50.87312316894531 88.5 45 88.5 Z" stroke="none"/>
              <path d="M 45 3 C 39.32871246337891 3 33.82865524291992 4.110054016113281 28.65262985229492 6.299339294433594 C 23.65165710449219 8.414573669433594 19.15968322753906 11.44334411621094 15.301513671875 15.301513671875 C 11.44334411621094 19.15968322753906 8.414573669433594 23.65165710449219 6.299339294433594 28.65262985229492 C 4.110054016113281 33.82865524291992 3 39.32871246337891 3 45 C 3 50.67128753662109 4.110054016113281 56.17134475708008 6.299339294433594 61.34737396240234 C 8.414573669433594 66.34834289550781 11.44334411621094 70.84031677246094 15.301513671875 74.698486328125 C 19.15968322753906 78.55665588378906 23.65165710449219 81.58542633056641 28.65262985229492 83.70066070556641 C 33.82865524291992 85.88994598388672 39.32871246337891 87 45 87 C 50.67128753662109 87 56.17134475708008 85.88994598388672 61.34737396240234 83.70066070556641 C 66.34834289550781 81.58542633056641 70.84031677246094 78.55665588378906 74.698486328125 74.698486328125 C 78.55665588378906 70.84031677246094 81.58542633056641 66.34834289550781 83.70066070556641 61.34737396240234 C 85.88994598388672 56.17134475708008 87 50.67128753662109 87 45 C 87 39.32871246337891 85.88994598388672 33.82865524291992 83.70066070556641 28.65262985229492 C 81.58542633056641 23.65165710449219 78.55665588378906 19.15968322753906 74.698486328125 15.301513671875 C 70.84031677246094 11.44334411621094 66.34834289550781 8.414573669433594 61.34737396240234 6.299339294433594 C 56.17134475708008 4.110054016113281 50.67128753662109 3 45 3 M 45 0 C 69.85281372070312 0 90 20.14718627929688 90 45 C 90 69.85281372070312 69.85281372070312 90 45 90 C 20.14718627929688 90 0 69.85281372070312 0 45 C 0 20.14718627929688 20.14718627929688 0 45 0 Z" stroke="none" fill="#205277"/>
            </g>
          </g>
        </g>
      </g>
    </g>
    <g id="_007-cloud-server" data-name="007-cloud-server" transform="translate(1319.414 2402.298)">
      <g id="Grupo_1148852" data-name="Grupo 1148852" transform="translate(1.269 1.269)">
        <path id="Trazado_986428" data-name="Trazado 986428" d="M145.522,26.167a7.3,7.3,0,0,0-7.305-7.3,8.87,8.87,0,0,0-17.739,0,5.479,5.479,0,0,0-5.167,7.3h-1.655a3.651,3.651,0,1,0,0,7.3h24.56A7.3,7.3,0,0,0,145.522,26.167Zm0,0" transform="translate(-97.318 -10)" fill="#a3bfee" fill-rule="evenodd"/>
        <path id="Trazado_986429" data-name="Trazado 986429" d="M198.059,125.041a2.03,2.03,0,1,1-2.03-2.03A2.03,2.03,0,0,1,198.059,125.041Zm0,0" transform="translate(-170.659 -108.676)" fill="#ffba4a" fill-rule="evenodd"/>
        <path id="Trazado_986430" data-name="Trazado 986430" d="M278.063,125.041a2.03,2.03,0,1,1-2.03-2.03A2.03,2.03,0,0,1,278.063,125.041Zm0,0" transform="translate(-240.515 -108.676)" fill="#ffba4a" fill-rule="evenodd"/>
        <path id="Trazado_986431" data-name="Trazado 986431" d="M238.063,367.03a2.03,2.03,0,1,1-2.03-2.03A2.03,2.03,0,0,1,238.063,367.03Zm0,0" transform="translate(-205.589 -319.968)" fill="#ffba4a" fill-rule="evenodd"/>
        <path id="Trazado_986432" data-name="Trazado 986432" d="M21.417,286.118H30.8a2.035,2.035,0,0,0,2.03-2.03V280.03A2.035,2.035,0,0,0,30.8,278H12.03A2.036,2.036,0,0,0,10,280.03v4.059a2.036,2.036,0,0,0,2.03,2.03Zm0,0" transform="translate(-10 -244.004)" fill="#ff6d2f" fill-rule="evenodd"/>
        <path id="Trazado_986433" data-name="Trazado 986433" d="M30.8,374H12.03A2.036,2.036,0,0,0,10,376.03v4.059a2.036,2.036,0,0,0,2.03,2.03H30.8a2.035,2.035,0,0,0,2.03-2.03V376.03A2.035,2.035,0,0,0,30.8,374Zm0,0" transform="translate(-10 -327.826)" fill="#ff6d2f" fill-rule="evenodd"/>
        <path id="Trazado_986434" data-name="Trazado 986434" d="M88.059,472.03A2.03,2.03,0,1,1,86.03,470,2.03,2.03,0,0,1,88.059,472.03Zm0,0" transform="translate(-74.613 -411.649)" fill="#ff6d2f" fill-rule="evenodd"/>
        <path id="Trazado_986435" data-name="Trazado 986435" d="M321.42,286.118h9.387a2.035,2.035,0,0,0,2.03-2.03V280.03a2.035,2.035,0,0,0-2.03-2.03H312.034a2.035,2.035,0,0,0-2.03,2.03v4.059a2.035,2.035,0,0,0,2.03,2.03Zm0,0" transform="translate(-271.948 -244.004)" fill="#ff6d2f" fill-rule="evenodd"/>
        <path id="Trazado_986436" data-name="Trazado 986436" d="M330.807,374H312.034a2.035,2.035,0,0,0-2.03,2.03v4.059a2.035,2.035,0,0,0,2.03,2.03h18.774a2.035,2.035,0,0,0,2.03-2.03V376.03A2.035,2.035,0,0,0,330.807,374Zm0,0" transform="translate(-271.948 -327.826)" fill="#ff6d2f" fill-rule="evenodd"/>
        <path id="Trazado_986437" data-name="Trazado 986437" d="M388.063,472.03a2.03,2.03,0,1,1-2.03-2.03A2.03,2.03,0,0,1,388.063,472.03Zm0,0" transform="translate(-336.561 -411.649)" fill="#ff6d2f" fill-rule="evenodd"/>
      </g>
      <path id="Trazado_986438" data-name="Trazado 986438" d="M431.034,187.549h.03a1.269,1.269,0,1,0,0-2.537h-.03a1.269,1.269,0,1,0,0,2.537Zm0,0" transform="translate(-375.25 -161.543)"/>
      <path id="Trazado_986439" data-name="Trazado 986439" d="M401.034,187.549h.03a1.269,1.269,0,0,0,0-2.537h-.03a1.269,1.269,0,0,0,0,2.537Zm0,0" transform="translate(-349.055 -161.543)"/>
      <path id="Trazado_986440" data-name="Trazado 986440" d="M241.185,422h-.03a1.269,1.269,0,1,0,0,2.537h.03a1.269,1.269,0,1,0,0-2.537Zm0,0" transform="translate(-209.457 -368.469)"/>
      <path id="Trazado_986441" data-name="Trazado 986441" d="M60.128,44.651a3.3,3.3,0,0,0,3.3-3.3V37.294a3.3,3.3,0,0,0-3.3-3.3H52.009V30.889a3.3,3.3,0,0,0-3.3-3.3H38.817a.772.772,0,0,1-.761-.761v-.824h4.111a8.57,8.57,0,0,0,1.2-17.057,10.139,10.139,0,0,0-20.141.023l-.062.011a1.268,1.268,0,1,0,.473,2.492,4.256,4.256,0,0,1,.791-.074A1.268,1.268,0,0,0,25.7,10.134a7.6,7.6,0,0,1,15.2,0A1.268,1.268,0,0,0,42.166,11.4a6.033,6.033,0,1,1,0,12.067H38.056V20.678a3.3,3.3,0,1,0-2.537,0v2.792H27.907V20.678a3.3,3.3,0,1,0-2.537,0v2.792H17.606a2.382,2.382,0,1,1,0-4.765h1.655a1.269,1.269,0,1,0,0-2.537H17.606a4.919,4.919,0,1,0,0,9.839H25.37v.824a.771.771,0,0,1-.761.761H14.715a3.3,3.3,0,0,0-3.3,3.3V34H3.3a3.3,3.3,0,0,0-3.3,3.3v4.059a3.3,3.3,0,0,0,3.3,3.3h8.118v1.522H3.3a3.3,3.3,0,0,0-3.3,3.3v4.059a3.3,3.3,0,0,0,3.3,3.3h8.118v1.776a3.315,3.315,0,0,0-1.775,1.775H8.749a1.269,1.269,0,1,0,0,2.537h.892a3.3,3.3,0,0,0,6.088,0h.892a1.269,1.269,0,0,0,0-2.537h-.893a3.315,3.315,0,0,0-1.775-1.775V56.829h8.118a3.3,3.3,0,0,0,3.3-3.3V49.472a3.3,3.3,0,0,0-3.3-3.3H13.954V44.651h8.118a3.3,3.3,0,0,0,3.3-3.3V37.294a3.3,3.3,0,0,0-3.3-3.3H13.954V30.889a.771.771,0,0,1,.761-.761h9.894a3.3,3.3,0,0,0,3.3-3.3v-.824h2.538v19.28a3.3,3.3,0,1,0,2.537,0V26.006h2.537v.824a3.3,3.3,0,0,0,3.3,3.3h9.894a.771.771,0,0,1,.761.761V34H41.354a3.3,3.3,0,0,0-3.3,3.3v4.059a3.3,3.3,0,0,0,3.3,3.3h8.118v1.522H41.354a3.3,3.3,0,0,0-3.3,3.3v4.059a3.3,3.3,0,0,0,3.3,3.3h8.118v1.776A3.315,3.315,0,0,0,47.7,60.381H46.8a1.269,1.269,0,0,0,0,2.537H47.7a3.3,3.3,0,0,0,6.088,0h.892a1.269,1.269,0,0,0,0-2.537h-.892A3.319,3.319,0,0,0,52.009,58.6V56.829h8.118a3.3,3.3,0,0,0,3.3-3.3V49.472a3.3,3.3,0,0,0-3.3-3.3H52.009V44.651ZM36.787,16.873a.761.761,0,1,1-.761.761A.762.762,0,0,1,36.787,16.873Zm-10.149,0a.761.761,0,1,1-.761.761A.762.762,0,0,1,26.639,16.873ZM12.685,62.41a.762.762,0,0,1-.761-.76h0a.762.762,0,0,1,.76-.76h0a.761.761,0,0,1,.76.76h0A.762.762,0,0,1,12.685,62.41ZM22.833,49.472v4.059a.771.771,0,0,1-.761.761H3.3a.772.772,0,0,1-.761-.761V49.472a.771.771,0,0,1,.761-.761H22.072A.771.771,0,0,1,22.833,49.472Zm0-12.178v4.059a.771.771,0,0,1-.761.761H3.3a.772.772,0,0,1-.761-.761V37.294a.771.771,0,0,1,.761-.761H22.072A.771.771,0,0,1,22.833,37.294Zm8.88,11.8a.761.761,0,0,1,0-1.522h0a.761.761,0,0,1,0,1.522ZM50.741,62.41a.762.762,0,0,1-.761-.761h0a.762.762,0,0,1,.76-.761h0a.762.762,0,0,1,.76.76h0A.762.762,0,0,1,50.741,62.41ZM60.889,49.472v4.059a.772.772,0,0,1-.761.761H41.354a.772.772,0,0,1-.761-.761V49.472a.771.771,0,0,1,.761-.761H60.128A.771.771,0,0,1,60.889,49.472Zm-20.3-8.118V37.294a.772.772,0,0,1,.761-.761H60.128a.772.772,0,0,1,.761.761v4.059a.771.771,0,0,1-.761.761H41.354A.771.771,0,0,1,40.593,41.353Zm0,0"/>
      <path id="Trazado_986442" data-name="Trazado 986442" d="M331.3,300h-.03a1.268,1.268,0,0,0,0,2.537h.03a1.268,1.268,0,0,0,0-2.537Zm0,0" transform="translate(-288.143 -261.945)"/>
      <path id="Trazado_986443" data-name="Trazado 986443" d="M331.3,396h-.03a1.269,1.269,0,0,0,0,2.537h.03a1.269,1.269,0,0,0,0-2.537Zm0,0" transform="translate(-288.143 -345.767)"/>
      <path id="Trazado_986444" data-name="Trazado 986444" d="M331.3,476h-.03a1.268,1.268,0,1,0,0,2.537h.03a1.268,1.268,0,0,0,0-2.537Zm0,0" transform="translate(-288.143 -415.619)"/>
      <path id="Trazado_986445" data-name="Trazado 986445" d="M451.064,476h-.03a1.268,1.268,0,1,0,0,2.537h.03a1.268,1.268,0,1,0,0-2.537Zm0,0" transform="translate(-392.713 -415.619)"/>
      <path id="Trazado_986446" data-name="Trazado 986446" d="M31.272,302.537h.03a1.268,1.268,0,1,0,0-2.537h-.03a1.268,1.268,0,1,0,0,2.537Zm0,0" transform="translate(-26.198 -261.945)"/>
      <path id="Trazado_986447" data-name="Trazado 986447" d="M31.3,396h-.03a1.269,1.269,0,0,0,0,2.537h.03a1.269,1.269,0,1,0,0-2.537Zm0,0" transform="translate(-26.198 -345.767)"/>
      <path id="Trazado_986448" data-name="Trazado 986448" d="M31.3,476h-.03a1.268,1.268,0,1,0,0,2.537h.03a1.268,1.268,0,1,0,0-2.537Zm0,0" transform="translate(-26.198 -415.619)"/>
      <path id="Trazado_986449" data-name="Trazado 986449" d="M151.064,476h-.03a1.268,1.268,0,0,0,0,2.537h.03a1.268,1.268,0,1,0,0-2.537Zm0,0" transform="translate(-130.768 -415.619)"/>
      <path id="Trazado_986450" data-name="Trazado 986450" d="M145.541,96.269A1.269,1.269,0,1,1,144.272,95,1.268,1.268,0,0,1,145.541,96.269Zm0,0" transform="translate(-124.864 -82.949)"/>
    </g>
  </g>
</svg>
