<svg xmlns="http://www.w3.org/2000/svg" xmlns:xlink="http://www.w3.org/1999/xlink" width="108" height="108" viewBox="0 0 108 108">
  <defs>
    <filter id="Fondo" x="0" y="0" width="108" height="108" filterUnits="userSpaceOnUse">
      <feOffset dy="3" input="SourceAlpha"/>
      <feGaussianBlur stdDeviation="3" result="blur"/>
      <feFlood flood-opacity="0.161"/>
      <feComposite operator="in" in2="blur"/>
      <feComposite in="SourceGraphic"/>
    </filter>
  </defs>
  <g id="Icono" transform="translate(9 -689)">
    <g transform="matrix(1, 0, 0, 1, -9, 689)" filter="url(#Fondo)">
      <g id="Fondo-2" data-name="Fondo" transform="translate(9 6)" fill="#fee1ca">
        <path d="M 45 88.5 C 39.12687683105469 88.5 33.43022537231445 87.35007476806641 28.06830024719238 85.08217620849609 C 22.88852500915527 82.89131164550781 18.23629951477051 79.75458526611328 14.2408504486084 75.75914764404297 C 10.24541282653809 71.76370239257812 7.108687400817871 67.11147308349609 4.917825222015381 61.93170166015625 C 2.649924993515015 56.56977462768555 1.5 50.87312316894531 1.5 45 C 1.5 39.12687683105469 2.649924993515015 33.43022537231445 4.917825222015381 28.06830024719238 C 7.108687400817871 22.88852500915527 10.24541282653809 18.23629951477051 14.2408504486084 14.2408504486084 C 18.23629951477051 10.24541282653809 22.88852500915527 7.108687400817871 28.06830024719238 4.917825222015381 C 33.43022537231445 2.649924993515015 39.12687683105469 1.5 45 1.5 C 50.87312316894531 1.5 56.56977462768555 2.649924993515015 61.93170166015625 4.917825222015381 C 67.11147308349609 7.108687400817871 71.76370239257812 10.24541282653809 75.75914764404297 14.2408504486084 C 79.75458526611328 18.23629951477051 82.89131164550781 22.88852500915527 85.08217620849609 28.06830024719238 C 87.35007476806641 33.43022537231445 88.5 39.12687683105469 88.5 45 C 88.5 50.87312316894531 87.35007476806641 56.56977462768555 85.08217620849609 61.93170166015625 C 82.89131164550781 67.11147308349609 79.75458526611328 71.76370239257812 75.75914764404297 75.75914764404297 C 71.76370239257812 79.75458526611328 67.11147308349609 82.89131164550781 61.93170166015625 85.08217620849609 C 56.56977462768555 87.35007476806641 50.87312316894531 88.5 45 88.5 Z" stroke="none"/>
        <path d="M 45 3 C 39.32871246337891 3 33.82865524291992 4.110054016113281 28.65262985229492 6.299339294433594 C 23.65165710449219 8.414573669433594 19.15968322753906 11.44334411621094 15.301513671875 15.301513671875 C 11.44334411621094 19.15968322753906 8.414573669433594 23.65165710449219 6.299339294433594 28.65262985229492 C 4.110054016113281 33.82865524291992 3 39.32871246337891 3 45 C 3 50.67128753662109 4.110054016113281 56.17134475708008 6.299339294433594 61.34737396240234 C 8.414573669433594 66.34834289550781 11.44334411621094 70.84031677246094 15.301513671875 74.698486328125 C 19.15968322753906 78.55665588378906 23.65165710449219 81.58542633056641 28.65262985229492 83.70066070556641 C 33.82865524291992 85.88994598388672 39.32871246337891 87 45 87 C 50.67128753662109 87 56.17134475708008 85.88994598388672 61.34737396240234 83.70066070556641 C 66.34834289550781 81.58542633056641 70.84031677246094 78.55665588378906 74.698486328125 74.698486328125 C 78.55665588378906 70.84031677246094 81.58542633056641 66.34834289550781 83.70066070556641 61.34737396240234 C 85.88994598388672 56.17134475708008 87 50.67128753662109 87 45 C 87 39.32871246337891 85.88994598388672 33.82865524291992 83.70066070556641 28.65262985229492 C 81.58542633056641 23.65165710449219 78.55665588378906 19.15968322753906 74.698486328125 15.301513671875 C 70.84031677246094 11.44334411621094 66.34834289550781 8.414573669433594 61.34737396240234 6.299339294433594 C 56.17134475708008 4.110054016113281 50.67128753662109 3 45 3 M 45 0 C 69.85281372070312 0 90 20.14718627929688 90 45 C 90 69.85281372070312 69.85281372070312 90 45 90 C 20.14718627929688 90 0 69.85281372070312 0 45 C 0 20.14718627929688 20.14718627929688 0 45 0 Z" stroke="none" fill="#8a552c"/>
      </g>
    </g>
    <g id="Layer_2" data-name="Layer 2" transform="translate(19.538 713.509)">
      <g id="_1" data-name="1" transform="translate(-0.067 -0.003)">
        <path id="Trazado_986473" data-name="Trazado 986473" d="M52.152,52.985H.839A.839.839,0,0,1,0,52.146V.839a.839.839,0,0,1,1.678,0V51.307H52.152a.839.839,0,1,1,0,1.678Z" transform="translate(0.067 0.003)" fill="#2c3d60"/>
        <path id="Trazado_986474" data-name="Trazado 986474" d="M48.191,52.225V.76L38.021,15.3,27.862,9.707,17.7,22.019,10.919,15.3.76,27.611V52.225Z" transform="translate(0.067 0.003)" fill="#f4c08e"/>
        <path id="Trazado_986475" data-name="Trazado 986475" d="M48.191,52.225V5.81L39.161,19.4l-11.3-4.537L17.7,26.189,10.919,19.4,4.146,28.452.76,52.225Z" transform="translate(0.067 0.003)" fill="#feb166"/>
        <path id="Trazado_986476" data-name="Trazado 986476" d="M48.1,52.985H.846A.843.843,0,0,1,0,52.146V27.6a.856.856,0,0,1,.189-.53L10.322,14.792a.838.838,0,0,1,.6-.3.817.817,0,0,1,.646.243l6.091,6.038L27.19,9.228a.862.862,0,0,1,1.113-.2l9.453,5.21L47.41.365a.85.85,0,0,1,.946-.331.862.862,0,0,1,.635.806V52.146a.835.835,0,0,1-.263.609.85.85,0,0,1-.627.23ZM1.692,51.307H47.254V3.511L38.67,15.818a.851.851,0,0,1-1.113.254l-9.5-5.243L18.372,22.563a.838.838,0,0,1-.612.3.794.794,0,0,1-.635-.243l-6.091-6.06L1.692,27.905Z" transform="translate(0.067 0.003)" fill="#2c3d60"/>
        <path id="Trazado_986477" data-name="Trazado 986477" d="M2.78,5.56h-2A.78.78,0,1,1,.76,4h2a.76.76,0,1,1,0,1.52Z" transform="translate(0.067 0.003)" fill="#2c3d60"/>
        <path id="Trazado_986478" data-name="Trazado 986478" d="M2.78,11.62h-2A.76.76,0,0,1,0,10.86a.75.75,0,0,1,.76-.75h2a.75.75,0,0,1,.76.75A.76.76,0,0,1,2.78,11.62Z" transform="translate(0.067 1.087)" fill="#2c3d60"/>
        <path id="Trazado_986479" data-name="Trazado 986479" d="M2.78,17.68h-2a.76.76,0,1,1,0-1.51h2a.76.76,0,1,1,0,1.51Z" transform="translate(0.067 1.737)" fill="#2c3d60"/>
        <path id="Trazado_986480" data-name="Trazado 986480" d="M2.78,29.81h-2a.76.76,0,0,1,0-1.52h2a.76.76,0,1,1,0,1.52Z" transform="translate(0.067 3.037)" fill="#2c3d60"/>
        <path id="Trazado_986481" data-name="Trazado 986481" d="M2.78,35.87h-2a.76.76,0,1,1,0-1.51h2a.76.76,0,1,1,0,1.51Z" transform="translate(0.067 3.687)" fill="#2c3d60"/>
        <path id="Trazado_986482" data-name="Trazado 986482" d="M36.562,28.04,27.614,24,17.548,35.12l-7.84-3.04L.76,42.19v5.05H52.231V13.89Z" transform="translate(0.067 4.988)" fill="#8396ff"/>
        <path id="Trazado_986483" data-name="Trazado 986483" d="M36.61,28.04,27.65,24,17.571,35.12,9.72,32.08.76,42.19v3.03l47.061-3.03,3.77-27.65Z" transform="translate(0.067 4.988)" fill="#8eb6ff"/>
        <path id="Trazado_986484" data-name="Trazado 986484" d="M52.152,48H.839A.8.8,0,0,1,0,47.24V42.19a.69.69,0,0,1,.188-.47l8.92-10.11a.872.872,0,0,1,.983-.22l7.231,2.8,9.638-10.67a.911.911,0,0,1,1.027-.2l8.39,3.8L51.567,13.36a.891.891,0,0,1,.911-.173.752.752,0,0,1,.513.7V47.24A.8.8,0,0,1,52.152,48ZM1.678,46.48H51.357V15.72L37.127,28.58a.881.881,0,0,1-.96.14L27.831,25,18.216,35.6a.874.874,0,0,1-.972.21L10.013,33,1.678,42.46Z" transform="translate(0.067 4.988)" fill="#2c3d60"/>
        <circle id="Elipse_11599" data-name="Elipse 11599" cx="3.03" cy="3.03" r="3.03" transform="translate(14.497 35.907)" fill="#ff5d5d"/>
        <path id="Trazado_986485" data-name="Trazado 986485" d="M17.94,33.09h.24a3,3,0,1,0-2.51,5,3,3,0,0,1,2.27-5Z" transform="translate(1.584 3.812)" fill="#fe9e93"/>
        <path id="Trazado_986486" data-name="Trazado 986486" d="M15.92,38.91a3.79,3.79,0,1,1,3.79-3.79,3.79,3.79,0,0,1-3.79,3.79Zm0-6.07a2.28,2.28,0,1,0,2.27,2.28,2.28,2.28,0,0,0-2.27-2.28Z" transform="translate(1.571 3.867)" fill="#2c3d60"/>
        <circle id="Elipse_11600" data-name="Elipse 11600" cx="3.03" cy="3.03" r="3.03" transform="translate(24.667 5.813)" fill="#ff5d5d"/>
        <path id="Trazado_986487" data-name="Trazado 986487" d="M27,6.82h.25a3,3,0,1,0-2.51,5,3,3,0,0,1,2.26-5Z" transform="translate(2.641 0.003)" fill="#fe9e93"/>
        <path id="Trazado_986488" data-name="Trazado 986488" d="M25,12.63a3.79,3.79,0,1,1,2.686-1.107A3.79,3.79,0,0,1,25,12.63Zm0-6.06a2.28,2.28,0,1,0,2.27,2.27A2.28,2.28,0,0,0,25,6.57Z" transform="translate(2.691 0.003)" fill="#2c3d60"/>
        <path id="Trazado_986489" data-name="Trazado 986489" d="M36.13,28a3,3,0,1,1-3-3,3,3,0,0,1,3,3Z" transform="translate(3.65 2.97)" fill="#ff5d5d"/>
        <path id="Trazado_986490" data-name="Trazado 986490" d="M35.12,26a2,2,0,0,1,.24,0,3,3,0,1,0-2.51,5,3,3,0,0,1,2.27-5Z" transform="translate(3.586 2.971)" fill="#fe9e93"/>
        <path id="Trazado_986491" data-name="Trazado 986491" d="M33.09,31.83a3.79,3.79,0,1,1,2.694-1.124A3.79,3.79,0,0,1,33.09,31.83Zm0-6.06A2.28,2.28,0,1,0,35.37,28a2.28,2.28,0,0,0-2.28-2.23Z" transform="translate(3.687 2.994)" fill="#2c3d60"/>
        <path id="Trazado_986492" data-name="Trazado 986492" d="M15.92,48a.76.76,0,0,1-.76-.76V38.15a.76.76,0,1,1,1.51,0v9.09a.76.76,0,0,1-.75.76Z" transform="translate(1.699 4.988)" fill="#2c3d60"/>
        <path id="Trazado_986493" data-name="Trazado 986493" d="M25,48a.76.76,0,0,1-.76-.76V11.87a.76.76,0,1,1,1.52,0V47.24A.76.76,0,0,1,25,48Z" transform="translate(2.673 4.988)" fill="#2c3d60"/>
        <path id="Trazado_986494" data-name="Trazado 986494" d="M33.09,48a.76.76,0,0,1-.75-.76V31.07a.76.76,0,0,1,1.51,0V47.24A.76.76,0,0,1,33.09,48Z" transform="translate(3.541 4.988)" fill="#2c3d60"/>
      </g>
    </g>
  </g>
</svg>
