<svg xmlns="http://www.w3.org/2000/svg" xmlns:xlink="http://www.w3.org/1999/xlink" width="108" height="108" viewBox="0 0 108 108">
  <defs>
    <filter id="Trazado_982547" x="0" y="0" width="108" height="108" filterUnits="userSpaceOnUse">
      <feOffset dy="3" input="SourceAlpha"/>
      <feGaussianBlur stdDeviation="3" result="blur"/>
      <feFlood flood-opacity="0.161"/>
      <feComposite operator="in" in2="blur"/>
      <feComposite in="SourceGraphic"/>
    </filter>
  </defs>
  <g id="Grupo_1148850" data-name="Grupo 1148850" transform="translate(-197 -612)">
    <g id="Grupo_1148526" data-name="Grupo 1148526" transform="translate(0 -113)">
      <g id="Grupo_1146701" data-name="Grupo 1146701" transform="translate(-420 -732)">
        <g id="Grupo_1146627" data-name="Grupo 1146627" transform="translate(1 -2526)">
          <g transform="matrix(1, 0, 0, 1, 616, 3983)" filter="url(#Trazado_982547)">
            <g id="Trazado_982547-2" data-name="Trazado 982547" transform="translate(9 6)" fill="#eaf4fb">
              <path d="M 45 88.5 C 39.12687683105469 88.5 33.43022537231445 87.35007476806641 28.06830024719238 85.08217620849609 C 22.88852500915527 82.89131164550781 18.23629951477051 79.75458526611328 14.2408504486084 75.75914764404297 C 10.24541282653809 71.76370239257812 7.108687400817871 67.11147308349609 4.917825222015381 61.93170166015625 C 2.649924993515015 56.56977462768555 1.5 50.87312316894531 1.5 45 C 1.5 39.12687683105469 2.649924993515015 33.43022537231445 4.917825222015381 28.06830024719238 C 7.108687400817871 22.88852500915527 10.24541282653809 18.23629951477051 14.2408504486084 14.2408504486084 C 18.23629951477051 10.24541282653809 22.88852500915527 7.108687400817871 28.06830024719238 4.917825222015381 C 33.43022537231445 2.649924993515015 39.12687683105469 1.5 45 1.5 C 50.87312316894531 1.5 56.56977462768555 2.649924993515015 61.93170166015625 4.917825222015381 C 67.11147308349609 7.108687400817871 71.76370239257812 10.24541282653809 75.75914764404297 14.2408504486084 C 79.75458526611328 18.23629951477051 82.89131164550781 22.88852500915527 85.08217620849609 28.06830024719238 C 87.35007476806641 33.43022537231445 88.5 39.12687683105469 88.5 45 C 88.5 50.87312316894531 87.35007476806641 56.56977462768555 85.08217620849609 61.93170166015625 C 82.89131164550781 67.11147308349609 79.75458526611328 71.76370239257812 75.75914764404297 75.75914764404297 C 71.76370239257812 79.75458526611328 67.11147308349609 82.89131164550781 61.93170166015625 85.08217620849609 C 56.56977462768555 87.35007476806641 50.87312316894531 88.5 45 88.5 Z" stroke="none"/>
              <path d="M 45 3 C 39.32871246337891 3 33.82865524291992 4.110054016113281 28.65262985229492 6.299339294433594 C 23.65165710449219 8.414573669433594 19.15968322753906 11.44334411621094 15.301513671875 15.301513671875 C 11.44334411621094 19.15968322753906 8.414573669433594 23.65165710449219 6.299339294433594 28.65262985229492 C 4.110054016113281 33.82865524291992 3 39.32871246337891 3 45 C 3 50.67128753662109 4.110054016113281 56.17134475708008 6.299339294433594 61.34737396240234 C 8.414573669433594 66.34834289550781 11.44334411621094 70.84031677246094 15.301513671875 74.698486328125 C 19.15968322753906 78.55665588378906 23.65165710449219 81.58542633056641 28.65262985229492 83.70066070556641 C 33.82865524291992 85.88994598388672 39.32871246337891 87 45 87 C 50.67128753662109 87 56.17134475708008 85.88994598388672 61.34737396240234 83.70066070556641 C 66.34834289550781 81.58542633056641 70.84031677246094 78.55665588378906 74.698486328125 74.698486328125 C 78.55665588378906 70.84031677246094 81.58542633056641 66.34834289550781 83.70066070556641 61.34737396240234 C 85.88994598388672 56.17134475708008 87 50.67128753662109 87 45 C 87 39.32871246337891 85.88994598388672 33.82865524291992 83.70066070556641 28.65262985229492 C 81.58542633056641 23.65165710449219 78.55665588378906 19.15968322753906 74.698486328125 15.301513671875 C 70.84031677246094 11.44334411621094 66.34834289550781 8.414573669433594 61.34737396240234 6.299339294433594 C 56.17134475708008 4.110054016113281 50.67128753662109 3 45 3 M 45 0 C 69.85281372070312 0 90 20.14718627929688 90 45 C 90 69.85281372070312 69.85281372070312 90 45 90 C 20.14718627929688 90 0 69.85281372070312 0 45 C 0 20.14718627929688 20.14718627929688 0 45 0 Z" stroke="none" fill="#205277"/>
            </g>
          </g>
        </g>
      </g>
    </g>
    <g id="_020-search" data-name="020-search" transform="translate(225 636.411)">
      <g id="Grupo_1148849" data-name="Grupo 1148849" transform="translate(1.008 1.008)">
        <path id="Trazado_986398" data-name="Trazado 986398" d="M13.224,28.32a15.1,15.1,0,1,1,15.1,15.1A15.095,15.095,0,0,1,13.224,28.32ZM39.662,42.709a18.442,18.442,0,0,0,3.048-3.048,18.316,18.316,0,1,0-3.048,3.048Zm0,0" transform="translate(-10 -10)" fill="#6a87c1" fill-rule="evenodd"/>
        <path id="Trazado_986399" data-name="Trazado 986399" d="M57.1,42a15.1,15.1,0,1,0,15.1,15.1A15.095,15.095,0,0,0,57.1,42Zm0,0" transform="translate(-38.776 -38.776)" fill="#a3bfee" fill-rule="evenodd"/>
        <path id="Trazado_986400" data-name="Trazado 986400" d="M307.427,304.371a18.443,18.443,0,0,1-3.048,3.048l3.137,3.137,3.048-3.048Zm0,0" transform="translate(-274.717 -274.71)" fill="#f2f2f2" fill-rule="evenodd"/>
        <path id="Trazado_986401" data-name="Trazado 986401" d="M331.76,328.711l-3.048,3.048-.762.762,12.02,12.021a3.233,3.233,0,1,0,4.572-4.572l-12.02-12.02Zm0,0" transform="translate(-295.912 -295.912)" fill="#6a87c1" fill-rule="evenodd"/>
        <path id="Trazado_986402" data-name="Trazado 986402" d="M113.436,10a1.612,1.612,0,0,0,0,3.224h12.9a1.612,1.612,0,0,0,0-3.224Zm0,0" transform="translate(-101.564 -10)" fill="#00c9af" fill-rule="evenodd"/>
        <path id="Trazado_986403" data-name="Trazado 986403" d="M126.333,27.612h-12.9A1.617,1.617,0,0,1,111.824,26v7.053a1.617,1.617,0,0,0,1.612,1.612h12.9a1.617,1.617,0,0,0,1.612-1.612V26A1.616,1.616,0,0,1,126.333,27.612Zm0,0" transform="translate(-101.564 -24.388)" fill="#00c9af" fill-rule="evenodd"/>
        <path id="Trazado_986404" data-name="Trazado 986404" d="M111.824,103.049a1.617,1.617,0,0,0,1.612,1.612h12.9a1.617,1.617,0,0,0,1.612-1.612V96a1.617,1.617,0,0,1-1.612,1.612h-12.9A1.617,1.617,0,0,1,111.824,96Zm0,0" transform="translate(-101.564 -87.331)" fill="#00c9af" fill-rule="evenodd"/>
        <path id="Trazado_986405" data-name="Trazado 986405" d="M126.333,167.608h-12.9A1.617,1.617,0,0,1,111.824,166v7.053a1.617,1.617,0,0,0,1.612,1.612h12.9a1.617,1.617,0,0,0,1.612-1.612V166A1.617,1.617,0,0,1,126.333,167.608Zm0,0" transform="translate(-101.564 -150.278)" fill="#00c9af" fill-rule="evenodd"/>
      </g>
      <path id="Trazado_986406" data-name="Trazado 986406" d="M50.35,44.352l-12.02-12.02a1.007,1.007,0,0,0-1.425,0l-.05.049-1.813-1.813A19.319,19.319,0,0,0,28.369,2.243,2.624,2.624,0,0,0,25.777,0H12.88a2.623,2.623,0,0,0-2.593,2.247A19.382,19.382,0,0,0,7.766,3.84,1.008,1.008,0,1,0,8.971,5.455q.623-.465,1.289-.874V6.02A16.1,16.1,0,0,0,27.38,33.274a1.008,1.008,0,0,0-1.008-1.745A14.089,14.089,0,0,1,10.26,8.545V23.779a2.623,2.623,0,0,0,2.62,2.62h12.9a2.622,2.622,0,0,0,2.619-2.62V8.545a14.089,14.089,0,0,1,3.133,17.827,1.008,1.008,0,1,0,1.745,1.008A16.1,16.1,0,0,0,28.4,6.02V4.578A17.314,17.314,0,1,1,4.335,10.672,1.008,1.008,0,1,0,2.589,9.664a19.322,19.322,0,0,0,27.98,25.377l1.813,1.813-.05.05a1.007,1.007,0,0,0,0,1.425L44.352,50.35a4.241,4.241,0,0,0,6-6ZM26.381,16.726a.613.613,0,0,1-.6.6H12.88a.613.613,0,0,1-.6-.6v-4.5a2.615,2.615,0,0,0,.6.071h12.9a2.614,2.614,0,0,0,.6-.071Zm0-7.053a.612.612,0,0,1-.6.6H12.88a.612.612,0,0,1-.6-.6v-4.5a2.615,2.615,0,0,0,.6.071h12.9a2.614,2.614,0,0,0,.6-.071ZM12.88,2.015h12.9a.6.6,0,0,1,0,1.209H12.88a.6.6,0,1,1,0-1.209Zm12.9,22.368H12.88a.612.612,0,0,1-.6-.6v-4.5a2.615,2.615,0,0,0,.6.071h12.9a2.593,2.593,0,0,0,.6-.071v4.5A.613.613,0,0,1,25.777,24.383Zm6.375,9.392a19.376,19.376,0,0,0,1.623-1.623l1.655,1.654L33.806,35.43Zm16.772,15.15a2.228,2.228,0,0,1-3.147,0L34.469,37.616l.048-.048,0,0,3.048-3.048,0,0,.047-.047L48.924,45.777a2.234,2.234,0,0,1,0,3.147Zm0,0"/>
      <path id="Trazado_986407" data-name="Trazado 986407" d="M295.519,282.468a1.006,1.006,0,0,0,.761-.347l0,0a1.008,1.008,0,0,0-1.511-1.334l-.015.018a1.008,1.008,0,0,0,.76,1.668Zm0,0" transform="translate(-264.836 -252.184)"/>
      <path id="Trazado_986408" data-name="Trazado 986408" d="M166.862,67h-4.03a1.008,1.008,0,0,0,0,2.015h4.03a1.008,1.008,0,1,0,0-2.015Zm0,0" transform="translate(-145.519 -60.246)"/>
      <path id="Trazado_986409" data-name="Trazado 986409" d="M166.862,137h-4.03a1.008,1.008,0,0,0,0,2.015h4.03a1.008,1.008,0,1,0,0-2.015Zm0,0" transform="translate(-145.519 -123.192)"/>
      <path id="Trazado_986410" data-name="Trazado 986410" d="M166.862,206.992h-4.03a1.008,1.008,0,0,0,0,2.015h4.03a1.008,1.008,0,1,0,0-2.015Zm0,0" transform="translate(-145.519 -186.136)"/>
      <path id="Trazado_986411" data-name="Trazado 986411" d="M212.711,281.992a1.008,1.008,0,0,0,0,2.015h.024a1.008,1.008,0,0,0,0-2.015Zm0,0" transform="translate(-190.372 -253.578)"/>
      <path id="Trazado_986412" data-name="Trazado 986412" d="M182.711,281.992a1.008,1.008,0,0,0,0,2.015h.024a1.008,1.008,0,0,0,0-2.015Zm0,0" transform="translate(-163.395 -253.578)"/>
      <path id="Trazado_986413" data-name="Trazado 986413" d="M152.711,281.992a1.008,1.008,0,0,0,0,2.015h.024a1.008,1.008,0,0,0,0-2.015Zm0,0" transform="translate(-136.417 -253.578)"/>
      <path id="Trazado_986414" data-name="Trazado 986414" d="M43.015,68A1.008,1.008,0,1,1,42.008,67,1.008,1.008,0,0,1,43.015,68Zm0,0" transform="translate(-36.869 -60.246)"/>
    </g>
  </g>
</svg>
