<svg xmlns="http://www.w3.org/2000/svg" xmlns:xlink="http://www.w3.org/1999/xlink" width="108" height="108" viewBox="0 0 108 108">
  <defs>
    <filter id="Trazado_982547" x="0" y="0" width="108" height="108" filterUnits="userSpaceOnUse">
      <feOffset dy="3" input="SourceAlpha"/>
      <feGaussianBlur stdDeviation="3" result="blur"/>
      <feFlood flood-opacity="0.161"/>
      <feComposite operator="in" in2="blur"/>
      <feComposite in="SourceGraphic"/>
    </filter>
  </defs>
  <g id="Grupo_1148857" data-name="Grupo 1148857" transform="translate(-202.5 -9457.579)">
    <g id="Grupo_1148560" data-name="Grupo 1148560" transform="translate(-0.5 4357.579)">
      <g id="Grupo_1147070" data-name="Grupo 1147070" transform="translate(-413 1117)">
        <g transform="matrix(1, 0, 0, 1, 616, 3983)" filter="url(#Trazado_982547)">
          <g id="Trazado_982547-2" data-name="Trazado 982547" transform="translate(9 6)" fill="#fbfbfb">
            <path d="M 45 88.5 C 39.12687683105469 88.5 33.43022537231445 87.35007476806641 28.06830024719238 85.08217620849609 C 22.88852500915527 82.89131164550781 18.23629951477051 79.75458526611328 14.2408504486084 75.75914764404297 C 10.24541282653809 71.76370239257812 7.108687400817871 67.11147308349609 4.917825222015381 61.93170166015625 C 2.649924993515015 56.56977462768555 1.5 50.87312316894531 1.5 45 C 1.5 39.12687683105469 2.649924993515015 33.43022537231445 4.917825222015381 28.06830024719238 C 7.108687400817871 22.88852500915527 10.24541282653809 18.23629951477051 14.2408504486084 14.2408504486084 C 18.23629951477051 10.24541282653809 22.88852500915527 7.108687400817871 28.06830024719238 4.917825222015381 C 33.43022537231445 2.649924993515015 39.12687683105469 1.5 45 1.5 C 50.87312316894531 1.5 56.56977462768555 2.649924993515015 61.93170166015625 4.917825222015381 C 67.11147308349609 7.108687400817871 71.76370239257812 10.24541282653809 75.75914764404297 14.2408504486084 C 79.75458526611328 18.23629951477051 82.89131164550781 22.88852500915527 85.08217620849609 28.06830024719238 C 87.35007476806641 33.43022537231445 88.5 39.12687683105469 88.5 45 C 88.5 50.87312316894531 87.35007476806641 56.56977462768555 85.08217620849609 61.93170166015625 C 82.89131164550781 67.11147308349609 79.75458526611328 71.76370239257812 75.75914764404297 75.75914764404297 C 71.76370239257812 79.75458526611328 67.11147308349609 82.89131164550781 61.93170166015625 85.08217620849609 C 56.56977462768555 87.35007476806641 50.87312316894531 88.5 45 88.5 Z" stroke="none"/>
            <path d="M 45 3 C 39.32871246337891 3 33.82865524291992 4.110054016113281 28.65262985229492 6.299339294433594 C 23.65165710449219 8.414573669433594 19.15968322753906 11.44334411621094 15.301513671875 15.301513671875 C 11.44334411621094 19.15968322753906 8.414573669433594 23.65165710449219 6.299339294433594 28.65262985229492 C 4.110054016113281 33.82865524291992 3 39.32871246337891 3 45 C 3 50.67128753662109 4.110054016113281 56.17134475708008 6.299339294433594 61.34737396240234 C 8.414573669433594 66.34834289550781 11.44334411621094 70.84031677246094 15.301513671875 74.698486328125 C 19.15968322753906 78.55665588378906 23.65165710449219 81.58542633056641 28.65262985229492 83.70066070556641 C 33.82865524291992 85.88994598388672 39.32871246337891 87 45 87 C 50.67128753662109 87 56.17134475708008 85.88994598388672 61.34737396240234 83.70066070556641 C 66.34834289550781 81.58542633056641 70.84031677246094 78.55665588378906 74.698486328125 74.698486328125 C 78.55665588378906 70.84031677246094 81.58542633056641 66.34834289550781 83.70066070556641 61.34737396240234 C 85.88994598388672 56.17134475708008 87 50.67128753662109 87 45 C 87 39.32871246337891 85.88994598388672 33.82865524291992 83.70066070556641 28.65262985229492 C 81.58542633056641 23.65165710449219 78.55665588378906 19.15968322753906 74.698486328125 15.301513671875 C 70.84031677246094 11.44334411621094 66.34834289550781 8.414573669433594 61.34737396240234 6.299339294433594 C 56.17134475708008 4.110054016113281 50.67128753662109 3 45 3 M 45 0 C 69.85281372070312 0 90 20.14718627929688 90 45 C 90 69.85281372070312 69.85281372070312 90 45 90 C 20.14718627929688 90 0 69.85281372070312 0 45 C 0 20.14718627929688 20.14718627929688 0 45 0 Z" stroke="none" fill="#ddd"/>
          </g>
        </g>
      </g>
    </g>
    <g id="Network-World-Global-Server-Internet" transform="translate(224 9475.024)">
      <path id="Trazado_986596" data-name="Trazado 986596" d="M29,40V55c-4.99,0-9.36-4.84-11.84-12.14A25.747,25.747,0,0,1,29,40Z" fill="#00ccb3"/>
      <path id="Trazado_986597" data-name="Trazado 986597" d="M29,40a25.747,25.747,0,0,1,11.84,2.86C38.36,50.16,33.99,55,29,55Z" fill="#00ccb3"/>
      <path id="Trazado_986598" data-name="Trazado 986598" d="M17.16,42.86C19.64,50.16,24.01,55,29,55a25.852,25.852,0,0,1-18.25-7.5,25.8,25.8,0,0,1,6.41-4.64Z" fill="#00ccb3"/>
      <path id="Trazado_986599" data-name="Trazado 986599" d="M40.84,42.86a25.8,25.8,0,0,1,6.41,4.64A25.852,25.852,0,0,1,29,55C33.99,55,38.36,50.16,40.84,42.86Z" fill="#00ccb3"/>
      <path id="Trazado_986600" data-name="Trazado 986600" d="M29,29V40a25.747,25.747,0,0,0-11.84,2.86A43.3,43.3,0,0,1,15,29Z" fill="#00ccb3"/>
      <path id="Trazado_986601" data-name="Trazado 986601" d="M15,29a43.3,43.3,0,0,0,2.16,13.86,25.8,25.8,0,0,0-6.41,4.64A25.841,25.841,0,0,1,3,29Z" fill="#00ccb3"/>
      <path id="Trazado_986602" data-name="Trazado 986602" d="M29,29H43a43.3,43.3,0,0,1-2.16,13.86A25.747,25.747,0,0,0,29,40Z" fill="#00ccb3"/>
      <path id="Trazado_986603" data-name="Trazado 986603" d="M43,29H55a25.841,25.841,0,0,1-7.75,18.5,25.8,25.8,0,0,0-6.41-4.64A43.3,43.3,0,0,0,43,29Z" fill="#00ccb3"/>
      <path id="Trazado_986604" data-name="Trazado 986604" d="M17.16,15.14A43.3,43.3,0,0,0,15,29H3a25.841,25.841,0,0,1,7.75-18.5,25.8,25.8,0,0,0,6.41,4.64Z" fill="#00ccb3"/>
      <path id="Trazado_986605" data-name="Trazado 986605" d="M29,18V29H15a43.3,43.3,0,0,1,2.16-13.86A25.747,25.747,0,0,0,29,18Z" fill="#00ccb3"/>
      <path id="Trazado_986606" data-name="Trazado 986606" d="M55,29H43a43.3,43.3,0,0,0-2.16-13.86,25.8,25.8,0,0,0,6.41-4.64A25.841,25.841,0,0,1,55,29Z" fill="#00ccb3"/>
      <path id="Trazado_986607" data-name="Trazado 986607" d="M43,29H29V18a25.747,25.747,0,0,0,11.84-2.86A43.3,43.3,0,0,1,43,29Z" fill="#00ccb3"/>
      <path id="Trazado_986608" data-name="Trazado 986608" d="M29,3V18a25.747,25.747,0,0,1-11.84-2.86C19.64,7.84,24.01,3,29,3Z" fill="#00ccb3"/>
      <path id="Trazado_986609" data-name="Trazado 986609" d="M40.84,15.14A25.747,25.747,0,0,1,29,18V3C33.99,3,38.36,7.84,40.84,15.14Z" fill="#00ccb3"/>
      <path id="Trazado_986610" data-name="Trazado 986610" d="M47.25,10.5a25.8,25.8,0,0,1-6.41,4.64C38.36,7.84,33.99,3,29,3A25.852,25.852,0,0,1,47.25,10.5Z" fill="#00ccb3"/>
      <path id="Trazado_986611" data-name="Trazado 986611" d="M29,3c-4.99,0-9.36,4.84-11.84,12.14a25.8,25.8,0,0,1-6.41-4.64A25.852,25.852,0,0,1,29,3Z" fill="#00ccb3"/>
      <path id="Trazado_986612" data-name="Trazado 986612" d="M61,49v7c0,2.76-4.92,5-11,5s-11-2.24-11-5V49c0,2.76,4.92,5,11,5S61,51.76,61,49Z" fill="#acabb1"/>
      <path id="Trazado_986613" data-name="Trazado 986613" d="M61,42v7c0,2.76-4.92,5-11,5s-11-2.24-11-5V42c0,2.76,4.92,5,11,5S61,44.76,61,42Z" fill="#d8d7da"/>
      <ellipse id="Elipse_11608" data-name="Elipse 11608" cx="11" cy="5" rx="11" ry="5" transform="translate(39 37)" fill="#acabb1"/>
      <rect id="Rectángulo_408270" data-name="Rectángulo 408270" width="2" height="2" transform="translate(41 48)"/>
      <rect id="Rectángulo_408271" data-name="Rectángulo 408271" width="2" height="2" transform="translate(45 49)"/>
      <rect id="Rectángulo_408272" data-name="Rectángulo 408272" width="2" height="2" transform="translate(41 55)"/>
      <rect id="Rectángulo_408273" data-name="Rectángulo 408273" width="2" height="2" transform="translate(45 56)"/>
      <rect id="Rectángulo_408274" data-name="Rectángulo 408274" width="12" height="2" transform="translate(44 41)"/>
      <path id="Trazado_986614" data-name="Trazado 986614" d="M54.92,36.49A26.945,26.945,0,1,0,38,54.46V56c0,3.42,5.16,6,12,6s12-2.58,12-6V42C62,39.47,59.16,37.4,54.92,36.49ZM22.03,5a22.75,22.75,0,0,0-5.46,8.69A25.308,25.308,0,0,1,12.2,10.5,24.864,24.864,0,0,1,22.03,5ZM10.78,11.9a27.329,27.329,0,0,0,5.14,3.72A44.832,44.832,0,0,0,14.01,28H4.03a24.881,24.881,0,0,1,6.75-16.1ZM4.03,30h9.98a44.832,44.832,0,0,0,1.91,12.38,27.329,27.329,0,0,0-5.14,3.72A24.881,24.881,0,0,1,4.03,30ZM12.2,47.5a25.308,25.308,0,0,1,4.37-3.19A22.75,22.75,0,0,0,22.03,53a24.864,24.864,0,0,1-9.83-5.5ZM28,53.92c-3.98-.59-7.46-4.62-9.63-10.56A25.114,25.114,0,0,1,28,41.02Zm0-14.9a26.771,26.771,0,0,0-10.26,2.44A43.47,43.47,0,0,1,16.01,30H28ZM28,28H16.01a43.47,43.47,0,0,1,1.73-11.46A26.771,26.771,0,0,0,28,18.98Zm0-11.02a25.114,25.114,0,0,1-9.63-2.34C20.54,8.7,24.02,4.67,28,4.08ZM53.97,28H43.99a44.832,44.832,0,0,0-1.91-12.38,27.329,27.329,0,0,0,5.14-3.72A24.881,24.881,0,0,1,53.97,28Zm-.01,2a24.436,24.436,0,0,1-1.03,6.17A25.1,25.1,0,0,0,50,36a21.926,21.926,0,0,0-6.67.96A46.645,46.645,0,0,0,43.97,30ZM45.8,10.5a25.308,25.308,0,0,1-4.37,3.19A22.75,22.75,0,0,0,35.97,5a24.864,24.864,0,0,1,9.83,5.5ZM30,4.08c3.98.59,7.46,4.62,9.63,10.56A25.114,25.114,0,0,1,30,16.98Zm0,14.9a26.771,26.771,0,0,0,10.26-2.44A43.47,43.47,0,0,1,41.99,28H30Zm8,33.35c-.69.26-1.39.5-2.1.7A16.88,16.88,0,0,0,38,50.66Zm0-5.41c-2.21,4.11-5.01,6.55-8,7V41.02a25.144,25.144,0,0,1,8,1.65Zm.29-6.28A27.176,27.176,0,0,0,30,39.02V30H41.97a44.127,44.127,0,0,1-.84,7.89A6.112,6.112,0,0,0,38.29,40.64ZM60,56c0,1.89-4.28,4-10,4s-10-2.11-10-4V52.41C42.11,53.99,45.73,55,50,55s7.89-1.01,10-2.59Zm0-7c0,1.89-4.28,4-10,4s-10-2.11-10-4V45.41C42.11,46.99,45.73,48,50,48s7.89-1.01,10-2.59ZM50,46c-5.72,0-10-2.11-10-4s4.28-4,10-4,10,2.11,10,4S55.72,46,50,46Z"/>
    </g>
  </g>
</svg>
