<svg xmlns="http://www.w3.org/2000/svg" xmlns:xlink="http://www.w3.org/1999/xlink" width="113" height="113" viewBox="0 0 113 113">
  <defs>
    <filter id="Trazado_982547" x="0" y="0" width="113" height="113" filterUnits="userSpaceOnUse">
      <feOffset dy="3" input="SourceAlpha"/>
      <feGaussianBlur stdDeviation="3" result="blur"/>
      <feFlood flood-opacity="0.161"/>
      <feComposite operator="in" in2="blur"/>
      <feComposite in="SourceGraphic"/>
    </filter>
  </defs>
  <g id="Grupo_1148582" data-name="Grupo 1148582" transform="translate(-744 -3704.178)">
    <g id="Grupo_1147087" data-name="Grupo 1147087" transform="translate(753 3710.178)">
      <g transform="matrix(1, 0, 0, 1, -9, -6)" filter="url(#Trazado_982547)">
        <g id="Trazado_982547-2" data-name="Trazado 982547" transform="translate(9 6)" fill="#fdeffe">
          <path d="M 47.5 93.5 C 41.28937149047852 93.5 35.26533508300781 92.28397369384766 29.59518623352051 89.88570404052734 C 24.11771965026855 87.56893157958984 19.19813346862793 84.25196075439453 14.97309303283691 80.02691650390625 C 10.74804019927979 75.80186462402344 7.431066513061523 70.88229370117188 5.114293098449707 65.40481567382812 C 2.716026782989502 59.73468017578125 1.5 53.71062850952148 1.5 47.5 C 1.5 41.28937149047852 2.716026782989502 35.26533508300781 5.114293098449707 29.59518623352051 C 7.431066513061523 24.11771965026855 10.74804019927979 19.19813346862793 14.97309303283691 14.97309303283691 C 19.19813346862793 10.74804019927979 24.11771965026855 7.431066513061523 29.59518623352051 5.114293098449707 C 35.26533508300781 2.716026782989502 41.28937149047852 1.5 47.5 1.5 C 53.71062850952148 1.5 59.73468017578125 2.716026782989502 65.40481567382812 5.114293098449707 C 70.88229370117188 7.431066513061523 75.80186462402344 10.74804019927979 80.02691650390625 14.97309303283691 C 84.25196075439453 19.19813346862793 87.56893157958984 24.11771965026855 89.88570404052734 29.59518623352051 C 92.28397369384766 35.26533508300781 93.5 41.28937149047852 93.5 47.5 C 93.5 53.71062850952148 92.28397369384766 59.73468017578125 89.88570404052734 65.40481567382812 C 87.56893157958984 70.88229370117188 84.25196075439453 75.80186462402344 80.02691650390625 80.02691650390625 C 75.80186462402344 84.25196075439453 70.88229370117188 87.56893157958984 65.40481567382812 89.88570404052734 C 59.73468017578125 92.28397369384766 53.71062850952148 93.5 47.5 93.5 Z" stroke="none"/>
          <path d="M 47.5 3 C 41.49121475219727 3 35.66376876831055 4.176155090332031 30.17950439453125 6.495796203613281 C 24.88084411621094 8.736953735351562 20.12152099609375 11.94598388671875 16.03375244140625 16.03375244140625 C 11.94598388671875 20.12152099609375 8.736953735351562 24.88084411621094 6.495796203613281 30.17950439453125 C 4.176155090332031 35.66376876831055 3 41.49121475219727 3 47.5 C 3 53.50878524780273 4.176155090332031 59.33623123168945 6.495796203613281 64.82049560546875 C 8.736953735351562 70.11915588378906 11.94598388671875 74.87847900390625 16.03375244140625 78.96624755859375 C 20.12152099609375 83.05401611328125 24.88084411621094 86.26304626464844 30.17950439453125 88.50419616699219 C 35.66376876831055 90.82384490966797 41.49121475219727 92 47.5 92 C 53.50878524780273 92 59.33623123168945 90.82384490966797 64.82049560546875 88.50419616699219 C 70.11915588378906 86.26304626464844 74.87847900390625 83.05401611328125 78.96624755859375 78.96624755859375 C 83.05401611328125 74.87847900390625 86.26304626464844 70.11915588378906 88.50419616699219 64.82049560546875 C 90.82384490966797 59.33623123168945 92 53.50878524780273 92 47.5 C 92 41.49121475219727 90.82384490966797 35.66376876831055 88.50419616699219 30.17950439453125 C 86.26304626464844 24.88084411621094 83.05401611328125 20.12152099609375 78.96624755859375 16.03375244140625 C 74.87847900390625 11.94598388671875 70.11915588378906 8.736953735351562 64.82049560546875 6.495796203613281 C 59.33623123168945 4.176155090332031 53.50878524780273 3 47.5 3 M 47.5 0 C 73.7335205078125 0 95 21.2664794921875 95 47.5 C 95 73.7335205078125 73.7335205078125 95 47.5 95 C 21.2664794921875 95 0 73.7335205078125 0 47.5 C 0 21.2664794921875 21.2664794921875 0 47.5 0 Z" stroke="none" fill="#ee70f7"/>
        </g>
      </g>
      <g id="Layer_2" data-name="Layer 2" transform="translate(21 20.371)">
        <g id="_1" data-name="1">
          <rect id="Rectángulo_408245" data-name="Rectángulo 408245" width="35.696" height="40.155" transform="translate(16.457 11.987)" fill="#dfebf7"/>
          <path id="Trazado_986554" data-name="Trazado 986554" d="M14.91,10.86H47.25v34.6a2.208,2.208,0,0,1-2.208,2.208H14.91Z" transform="translate(1.547 1.127)" fill="#bac4d3"/>
          <path id="Trazado_986555" data-name="Trazado 986555" d="M50.673,51.931H14.989a.839.839,0,0,1-.839-.839V10.938a.828.828,0,0,1,.839-.828H50.673a.828.828,0,0,1,.839.828V51.093A.839.839,0,0,1,50.673,51.931ZM15.817,50.254H49.835V11.777H15.817Z" transform="translate(1.468 1.049)" fill="#2c3d60"/>
          <rect id="Rectángulo_408246" data-name="Rectángulo 408246" width="37.925" height="40.155" transform="translate(8.642 6.413)" fill="#dfebf7"/>
          <path id="Trazado_986556" data-name="Trazado 986556" d="M32.477,42.62H7.83V5.81H42.411V32.687Z" transform="translate(0.812 0.603)" fill="#bac4d3"/>
          <path id="Trazado_986557" data-name="Trazado 986557" d="M45.834,46.938H7.909A.839.839,0,0,1,7.07,46.1V5.889a.839.839,0,0,1,.839-.839H45.834a.839.839,0,0,1,.839.839V46.044a.839.839,0,0,1-.839.894ZM8.748,45.2H45V6.728H8.748Z" transform="translate(0.734 0.524)" fill="#2c3d60"/>
          <path id="Trazado_986558" data-name="Trazado 986558" d="M32.085,40.915H.76V.76H40.915V32.085Z" transform="translate(0.079 0.079)" fill="#fff"/>
          <path id="Trazado_986559" data-name="Trazado 986559" d="M31.776,40.709h-29l1.1-35.762a1.1,1.1,0,0,1,1.1-1.1l35.762-1.1V31.78Z" transform="translate(0.288 0.284)" fill="#dfebf7"/>
          <path id="Trazado_986560" data-name="Trazado 986560" d="M32.064,41.821H.839A.828.828,0,0,1,0,40.994V.839A.839.839,0,0,1,.839,0H40.994a.828.828,0,0,1,.828.839V32.064a.85.85,0,0,1-.243.6L32.66,41.579a.85.85,0,0,1-.6.243ZM1.678,40.155H31.722l8.433-8.433V1.678H1.678Z" fill="#2c3d60"/>
          <rect id="Rectángulo_408247" data-name="Rectángulo 408247" width="12.274" height="13.389" rx="1" transform="translate(6.413 7.528)" fill="#5aa874"/>
          <path id="Trazado_986561" data-name="Trazado 986561" d="M13.856,16.951,5.81,17.967V7.934a1.1,1.1,0,0,1,1.1-1.1h8.929l-.993,9.15A1.1,1.1,0,0,1,13.856,16.951Z" transform="translate(0.603 0.709)" fill="#77d982"/>
          <path id="Trazado_986562" data-name="Trazado 986562" d="M17.048,21.126H7A1.965,1.965,0,0,1,5.05,19.173V8.014A1.965,1.965,0,0,1,7,6.06H17.048A1.954,1.954,0,0,1,18.99,8.014V19.173a1.954,1.954,0,0,1-1.943,1.954ZM7,7.738a.276.276,0,0,0-.276.276V19.173A.276.276,0,0,0,7,19.449H17.048a.276.276,0,0,0,.276-.276V8.014a.276.276,0,0,0-.276-.276Z" transform="translate(0.524 0.629)" fill="#2c3d60"/>
          <path id="Trazado_986563" data-name="Trazado 986563" d="M29.05,37.979V29.05h8.929Z" transform="translate(3.014 3.014)" fill="#fff"/>
          <path id="Trazado_986564" data-name="Trazado 986564" d="M29.129,38.886a.817.817,0,0,1-.32,0,.85.85,0,0,1-.519-.773V29.129a.839.839,0,0,1,.839-.839h8.929a.839.839,0,0,1,.585,1.435l-8.918,8.918a.828.828,0,0,1-.6.243Zm.839-8.918v6.071l6.071-6.071Z" transform="translate(2.935 2.935)" fill="#2c3d60"/>
          <path id="Trazado_986565" data-name="Trazado 986565" d="M33.318,15.817H21.088a.839.839,0,1,1,0-1.667h12.23a.839.839,0,1,1,0,1.667Z" transform="translate(2.091 1.468)" fill="#2c3d60"/>
          <path id="Trazado_986566" data-name="Trazado 986566" d="M31.079,11.777h-10a.839.839,0,0,1-.839-.839.828.828,0,0,1,.839-.828H31.112a.828.828,0,0,1,.839.828.839.839,0,0,1-.872.839Z" transform="translate(2.1 1.049)" fill="#2c3d60"/>
          <path id="Trazado_986567" data-name="Trazado 986567" d="M33.309,7.738H21.079a.839.839,0,1,1,0-1.678h12.23a.839.839,0,0,1,0,1.678Z" transform="translate(2.1 0.629)" fill="#2c3d60"/>
          <path id="Trazado_986568" data-name="Trazado 986568" d="M28.805,19.868H21.079a.839.839,0,0,1,0-1.678h7.726a.839.839,0,0,1,0,1.678Z" transform="translate(2.1 1.887)" fill="#2c3d60"/>
          <path id="Trazado_986569" data-name="Trazado 986569" d="M33,23.908H24.079a.839.839,0,1,1,0-1.678H33a.839.839,0,0,1,0,1.678Z" transform="translate(2.411 2.307)" fill="#2c3d60"/>
          <path id="Trazado_986570" data-name="Trazado 986570" d="M22.655,23.908H5.889a.839.839,0,1,1,0-1.678H22.655a.839.839,0,0,1,0,1.678Z" transform="translate(0.524 2.307)" fill="#2c3d60"/>
          <path id="Trazado_986571" data-name="Trazado 986571" d="M26.126,27.948H14.989a.839.839,0,1,1,0-1.678H26.126a.839.839,0,0,1,0,1.678Z" transform="translate(1.468 2.726)" fill="#2c3d60"/>
          <path id="Trazado_986572" data-name="Trazado 986572" d="M12.578,27.948H5.889a.839.839,0,1,1,0-1.678h6.689a.839.839,0,0,1,0,1.678Z" transform="translate(0.524 2.726)" fill="#2c3d60"/>
          <path id="Trazado_986573" data-name="Trazado 986573" d="M25.71,31.987H19.088a.839.839,0,1,1,0-1.667H25.71a.839.839,0,1,1,0,1.667Z" transform="translate(1.884 3.145)" fill="#2c3d60"/>
          <path id="Trazado_986574" data-name="Trazado 986574" d="M17.057,31.987H5.9a.839.839,0,1,1,0-1.667H17.057a.839.839,0,0,1,0,1.667Z" transform="translate(0.515 3.145)" fill="#2c3d60"/>
        </g>
      </g>
    </g>
  </g>
</svg>
